<svg width="358" height="224" viewBox="0 0 358 224" fill="none" xmlns="http://www.w3.org/2000/svg">
<path d="M329.034 85.2848V217.137L267.046 217.848L259.821 217.927L112.778 219.605L69.8306 217.739V105.52H116.075V136.602H152.349V30.5521H192.7V68.2481H199.926V46.2168H212.343V24.3632H218.65V3.5263H228.531V24.3632H237.493V46.6807H246.841V87.4959H267.54V132.526H297.043V85.2848H329.034Z" fill="#ECEBFF"/>
<path d="M161.653 39.0596H156.728V34.986H161.653V39.0596Z" fill="white"/>
<path d="M186.124 63.5299H181.199V59.4563H186.124V63.5299Z" fill="white"/>
<path d="M186.124 55.6729H181.199V51.5993H186.124V55.6729Z" fill="white"/>
<path d="M89.404 143.228H84.4785V139.154H89.404V143.228Z" fill="white"/>
<path d="M217.552 82.6257H212.625V78.5521H217.552V82.6257Z" fill="white"/>
<path d="M234.39 92.8211H229.464V88.7465H234.39V92.8211Z" fill="white"/>
<path d="M224.001 72.3257H219.077V68.2511H224.001V72.3257Z" fill="white"/>
<path d="M181.931 106.12H177.006V102.046H181.931V106.12Z" fill="white"/>
<path d="M257.246 103.016H252.32V98.9419H257.246V103.016Z" fill="white"/>
<path d="M310.86 98.9419H305.936V94.8683H310.86V98.9419Z" fill="white"/>
<path d="M318.178 105.053H313.253V100.979H318.178V105.053Z" fill="white"/>
<path d="M323.021 123.215H318.096V119.141H323.021V123.215Z" fill="white"/>
<path d="M82.7438 124.848H77.8184V120.775H82.7438V124.848Z" fill="white"/>
<path d="M93.759 119.668H88.8325V115.595H93.759V119.668Z" fill="white"/>
<path d="M311.653 124.848H306.727V120.775H311.653V124.848Z" fill="white"/>
<path d="M215.089 59.9301H210.163V55.8555H215.089V59.9301Z" fill="white"/>
<path d="M232.865 34.6237H227.939V30.5501H232.865V34.6237Z" fill="white"/>
<path d="M226.464 39.7071H221.539V35.6335H226.464V39.7071Z" fill="white"/>
<path d="M171.465 55.6729H166.539V51.5993H171.465V55.6729Z" fill="white"/>
<path d="M106.072 133.616H101.146V129.542H106.072V133.616Z" fill="white"/>
<path d="M171.465 84.662H166.539V80.5884H171.465V84.662Z" fill="white"/>
<path d="M199.926 218.611H192.7V68.2511H199.926V218.611Z" fill="#CECEF4"/>
<path d="M122.421 136.602V218.608H115.196V105.52H116.074V136.602H122.421Z" fill="#CECEF4"/>
<path d="M267.046 87.4959V218.608H259.821V87.4959H267.046Z" fill="#CECEF4"/>
<path d="M358 219.603C358 222.031 290.319 224 206.832 224C123.344 224 55.6641 222.031 55.6641 219.603C55.6641 217.173 123.344 215.204 206.832 215.204C290.319 215.204 358 217.173 358 219.603Z" fill="#CFC9F7"/>
<path d="M108.438 7.84764L153.83 166.355C155.48 172.115 152.155 178.108 146.395 179.758L68.5455 202.053C62.786 203.702 56.7925 200.378 55.1431 194.617L9.75041 36.1093C8.10053 30.3498 11.4254 24.3563 17.1854 22.7069L95.0354 0.413084C100.795 -1.23729 106.788 2.08812 108.438 7.84764Z" fill="#635489"/>
<path d="M68.5453 202.053L59.2175 204.724C53.4669 206.37 47.4645 203.049 45.8151 197.288L0.422023 38.7813C-1.22786 33.0208 2.10704 27.0253 7.85738 25.3779L17.1851 22.7069C11.4255 24.3563 8.1003 30.3498 9.74978 36.1093L55.1429 194.617C56.7923 200.378 62.7858 203.702 68.5453 202.053Z" fill="#423568"/>
<path d="M106.316 19.0824L146.084 157.948C146.826 160.538 145.329 163.235 142.738 163.978L63.2945 186.728C62.7072 186.896 62.1169 186.952 61.5473 186.9C59.5801 186.734 57.838 185.385 57.2645 183.382L17.4971 44.5181C16.7552 41.927 18.2516 39.2294 20.8423 38.4881L100.286 15.7372C102.877 14.995 105.574 16.4914 106.316 19.0824Z" fill="#EBE6FC"/>
<path d="M108.214 181.813C108.703 183.521 107.714 185.303 106.006 185.793C104.298 186.281 102.516 185.293 102.027 183.585C101.537 181.876 102.526 180.094 104.235 179.605C105.942 179.116 107.725 180.104 108.214 181.813Z" fill="#423568"/>
<path d="M65.2129 19.0114L48.6391 23.7582C48.0794 23.9191 47.4941 23.5943 47.3342 23.0337C47.1733 22.474 47.498 21.8887 48.0587 21.7288L64.6315 16.9829C65.1921 16.8221 65.7765 17.1458 65.9374 17.7065C66.0973 18.2671 65.7735 18.8515 65.2129 19.0114Z" fill="#423568"/>
<path d="M10.3386 60.9389L8.76089 55.4281C8.60009 54.8684 8.92474 54.2841 9.48461 54.1232C10.0452 53.9633 10.6297 54.2871 10.7901 54.8477L12.3683 60.3575C12.5287 60.9182 12.2044 61.5025 11.6438 61.6624C11.0839 61.8233 10.499 61.4995 10.3386 60.9389Z" fill="#635489"/>
<path d="M13.3058 71.2972L11.7276 65.7874C11.5672 65.2267 11.8911 64.6414 12.4517 64.4815C13.0119 64.3206 13.5961 64.6453 13.7569 65.206L15.3346 70.7158C15.495 71.2764 15.1711 71.8608 14.6109 72.0207C14.0503 72.1816 13.4662 71.8568 13.3058 71.2972Z" fill="#635489"/>
<path d="M71.5175 16.1084C71.785 17.0421 71.2451 18.0164 70.3114 18.2839C69.3766 18.5514 68.4034 18.0114 68.1359 17.0767C67.8684 16.1429 68.4083 15.1687 69.3421 14.9012C70.2768 14.6337 71.25 15.1746 71.5175 16.1084Z" fill="#8777B7"/>
<path d="M43.6977 24.075C43.8586 24.6357 43.5338 25.22 42.9742 25.3799C42.4135 25.5408 41.8292 25.2161 41.6683 24.6564C41.5084 24.0957 41.8321 23.5114 42.3928 23.3505C42.9534 23.1906 43.5378 23.5144 43.6977 24.075Z" fill="#423568"/>
<path d="M113.998 45.9079L63.1009 101.688L132.855 111.754L134.048 115.92L126.068 114.766L129.605 167.738L125.724 168.85L122.072 114.185L95.7352 110.381L78.9147 182.255L74.5676 183.5L91.8077 109.822L59.8782 105.208L40.8485 126.059L39.5742 121.608L77.1883 80.393L72.1316 57.1792L22.0734 60.4977L20.9595 56.6067L71.2926 53.2822L65.2991 25.756L69.1042 24.6662L80.4565 76.8188L112.724 41.4582L113.998 45.9079Z" fill="white"/>
<path d="M115.902 52.5607L130.653 104.068L98.9704 100.779L92.2534 77.3212L115.902 52.5607Z" fill="#2ECCC4"/>
<path d="M89.0528 81.309L93.9476 99.7631C94.1174 100.406 93.6031 101.026 92.9398 100.976L74.0889 99.5736C73.3081 99.5153 72.9152 98.6013 73.4117 97.9953L87.3678 80.9437C87.8683 80.3327 88.8504 80.546 89.0528 81.309Z" fill="#CAC1F4"/>
<path d="M47.063 147.76L71.6162 153.512L61.5472 186.9C59.58 186.734 57.8378 185.385 57.2643 183.382L47.063 147.76Z" fill="#2ECCC4"/>
<path d="M77.697 133.371L72.8328 149.478L45.8286 143.453L43.6226 135.747L50.5448 127.008L77.697 133.371Z" fill="#CAC1F4"/>
<path d="M82.8001 116.447L78.9032 129.371L53.2139 123.636L61.6533 112.985L82.8001 116.447Z" fill="#CAC1F4"/>
<path d="M118.525 165.87L118.806 170.831L86.9409 179.956C87.9971 174.068 89.3049 166.732 89.3049 166.732L118.525 165.87Z" fill="white"/>
<path d="M76.8901 173.576C75.7412 173.331 74.762 172.477 74.4165 171.27L73.6427 168.567C73.1442 166.827 74.151 165.011 75.8932 164.513L79.2344 163.555L76.8901 173.576ZM81.1375 172.757L83.5814 162.31L118.296 152.369C118.599 152.283 118.904 152.241 119.203 152.241C120.629 152.241 121.94 153.179 122.352 154.619L123.126 157.321C123.625 159.062 122.618 160.877 120.877 161.376L103.65 166.309L89.3054 166.732C89.3054 166.732 89.0221 168.323 88.6125 170.616L81.1375 172.757Z" fill="#AEA4C8"/>
<path d="M77.5678 173.647C77.3378 173.647 77.1108 173.622 76.8896 173.576L79.2339 163.555L83.581 162.31L81.137 172.757L78.4719 173.52C78.1699 173.605 77.8659 173.647 77.5678 173.647Z" fill="#B9B2CA"/>
<path d="M88.6123 170.616C89.0219 168.323 89.3052 166.732 89.3052 166.732L103.65 166.309L88.6123 170.616Z" fill="#B9B2CA"/>
<path d="M121.664 159.956L79.2599 172.1C77.5187 172.598 75.7035 171.591 75.2041 169.85L74.4302 167.147C73.9317 165.406 74.9395 163.591 76.6797 163.092L119.085 150.948C120.825 150.45 122.641 151.457 123.14 153.198L123.914 155.9C124.412 157.642 123.405 159.457 121.664 159.956Z" fill="#FFA329"/>
<path d="M94.2119 164.11C94.1645 164.283 94.0678 164.437 93.9197 164.574C93.7707 164.71 93.5742 164.815 93.3275 164.885C92.9563 164.99 92.6247 164.988 92.3325 164.876C92.0403 164.764 91.837 164.548 91.7225 164.231L92.5743 163.987C92.6227 164.108 92.6948 164.194 92.7915 164.243C92.8892 164.293 92.9968 164.301 93.1153 164.267C93.2179 164.238 93.2909 164.186 93.3344 164.114C93.3778 164.041 93.3857 163.957 93.3591 163.863L93.2169 163.676C93.1459 163.635 93.0649 163.608 92.9741 163.596C92.8823 163.584 92.7569 163.574 92.6 163.564C92.37 163.551 92.1795 163.532 92.0275 163.503C91.8755 163.473 91.7334 163.407 91.6011 163.301C91.4669 163.196 91.3701 163.037 91.3099 162.825C91.2536 162.628 91.2546 162.444 91.3139 162.272C91.3721 162.1 91.4787 161.95 91.6327 161.823C91.7876 161.696 91.9781 161.601 92.2062 161.535C92.5743 161.43 92.8922 161.434 93.1587 161.545C93.4252 161.658 93.6167 161.863 93.7322 162.161L92.8665 162.409C92.8191 162.305 92.755 162.229 92.673 162.184C92.5901 162.139 92.4954 162.131 92.3858 162.162C92.292 162.19 92.2229 162.235 92.1795 162.303C92.1371 162.369 92.1292 162.451 92.1568 162.546L92.2911 162.724L92.523 162.802C92.6109 162.813 92.7352 162.825 92.8981 162.836C93.13 162.847 93.3235 162.868 93.4775 162.9C93.6325 162.931 93.7766 163.001 93.9118 163.107C94.047 163.215 94.1457 163.375 94.2069 163.59C94.2573 163.764 94.2583 163.938 94.2119 164.11Z" fill="white"/>
<path d="M96.5354 160.351L96.718 160.988L95.8188 161.245L96.5838 163.917L95.7793 164.147L95.0143 161.475L94.125 161.73L93.9434 161.093L96.5354 160.351Z" fill="white"/>
<path d="M99.5033 161.77L98.7423 160.671L98.6752 162.006L99.5033 161.77ZM99.8833 162.318L98.6426 162.675L98.61 163.337L97.7681 163.578L98.0395 159.945L98.9604 159.683L101.113 162.619L100.261 162.863L99.8833 162.318Z" fill="white"/>
<path d="M101.895 160.452L102.391 160.31C102.55 160.264 102.657 160.195 102.711 160.103C102.767 160.012 102.774 159.897 102.735 159.761C102.697 159.63 102.629 159.537 102.532 159.484C102.434 159.432 102.307 159.427 102.152 159.473L101.655 159.614L101.895 160.452ZM103.307 161.991L102.235 160.947L102.052 160.999L102.409 162.248L101.61 162.478L100.662 159.17L102.028 158.778C102.291 158.703 102.525 158.685 102.731 158.723C102.938 158.762 103.11 158.847 103.245 158.979C103.38 159.11 103.477 159.277 103.535 159.481C103.605 159.721 103.597 159.943 103.512 160.15C103.428 160.357 103.268 160.527 103.034 160.663L104.192 161.738L103.307 161.991Z" fill="white"/>
<path d="M106.203 157.583L106.385 158.219L105.486 158.477L106.251 161.149L105.447 161.379L104.682 158.707L103.792 158.961L103.61 158.326L106.203 157.583Z" fill="white"/>
<path d="M35.9399 34.1638L36.9092 51.6388L19.9697 53.1529L17.4971 44.5181C16.7552 41.927 18.2516 39.2294 20.8423 38.4881L35.9399 34.1638Z" fill="#2ECCC4"/>
<path d="M61.1625 26.9414L66.8085 48.9184L42.891 51.086L41.7568 32.4986L61.1625 26.9414Z" fill="#CAC1F4"/>
<path d="M94.1833 42.1106C92.984 42.4541 91.7265 41.7553 91.383 40.557C91.0395 39.3597 91.7383 38.1012 92.9366 37.7577C94.1339 37.4142 95.3924 38.112 95.7359 39.3113C96.0794 40.5096 95.3816 41.7681 94.1833 42.1106ZM90.9428 30.7959C87.8789 31.6724 83.5477 35.9494 85.2227 41.7968C86.5444 46.4152 92.6119 48.2304 95.6441 50.7109C96.2867 51.2321 97.2264 50.9626 97.4949 50.1799C98.7554 46.4715 102.942 41.7198 101.619 37.1013C99.9438 31.2539 94.0066 29.9184 90.9428 30.7959Z" fill="#FF4F84"/>
<path d="M75.0163 141.102C73.818 141.446 72.5595 140.748 72.216 139.55C71.8735 138.351 72.5713 137.093 73.7696 136.749C74.9679 136.406 76.2264 137.105 76.5699 138.303C76.9124 139.501 76.2146 140.76 75.0163 141.102ZM71.7758 129.788C68.7119 130.665 64.3807 134.941 66.0557 140.788C67.3784 145.408 73.4459 147.222 76.4781 149.703C77.1197 150.224 78.0604 149.955 78.3279 149.173C79.5884 145.463 83.7745 140.712 82.4528 136.093C80.7778 130.246 74.8396 128.911 71.7758 129.788Z" fill="#FF4F84"/>
<path d="M100.034 56.2365L96.0931 60.6566C95.7299 61.0632 95.7654 61.6871 96.1721 62.0503C96.5788 62.4126 97.2036 62.377 97.5658 61.9704L101.508 57.5503C101.87 57.1436 101.835 56.5198 101.428 56.1566C101.022 55.7943 100.398 55.8298 100.034 56.2365Z" fill="#FF4F84"/>
<path d="M90.9451 66.4299L82.1187 76.3262C81.7565 76.7329 81.792 77.3567 82.1987 77.72C82.6054 78.0832 83.2292 78.0467 83.5924 77.64L92.4178 67.7437C92.781 67.337 92.7455 66.7132 92.3388 66.35C91.9312 65.9867 91.3073 66.0232 90.9451 66.4299ZM76.9702 82.0996L68.1449 91.9959C67.7816 92.4026 67.8172 93.0264 68.2238 93.3896C68.6315 93.7529 69.2553 93.7163 69.6176 93.3097L78.4439 83.4134C78.8071 83.0067 78.7706 82.3829 78.3639 82.0196C77.9573 81.6564 77.3335 81.6929 76.9702 82.0996Z" fill="#FF4F84"/>
<path d="M62.9959 97.7692L59.0545 102.189C58.8127 102.46 58.7397 102.841 58.862 103.181C58.9854 103.522 59.2855 103.769 59.6438 103.822L65.5001 104.705C66.039 104.786 66.5424 104.415 66.6233 103.876C66.7043 103.337 66.3331 102.834 65.7942 102.753L61.7413 102.142L64.4696 99.083C64.8328 98.6764 64.7963 98.0525 64.3896 97.6893C63.9829 97.3261 63.3591 97.3626 62.9959 97.7692Z" fill="#FF4F84"/>
<path d="M71.5114 105.612L81.8173 107.166C82.3562 107.248 82.8596 106.877 82.9406 106.338C83.0215 105.798 82.6504 105.296 82.1114 105.215L71.8065 103.66C71.2666 103.579 70.7641 103.95 70.6832 104.489C70.6013 105.028 70.9724 105.531 71.5114 105.612Z" fill="#FF4F84"/>
<path d="M87.8295 108.073L92.6414 108.799L91.5981 113.553C91.4816 114.085 91.8182 114.612 92.3503 114.729C92.8833 114.845 93.4094 114.509 93.5259 113.976L94.7962 108.192C94.8554 107.923 94.8011 107.647 94.6452 107.421C94.4892 107.195 94.2513 107.045 93.9789 107.004L88.1236 106.121C87.5847 106.04 87.0813 106.411 87.0004 106.95C86.9194 107.489 87.2896 107.992 87.8295 108.073Z" fill="#FF4F84"/>
<path d="M89.9298 121.15L87.0712 134.171C86.9538 134.704 87.2904 135.23 87.8234 135.348C88.3554 135.464 88.8825 135.128 88.999 134.595L91.8575 121.573C91.975 121.04 91.6384 120.514 91.1054 120.398C90.5733 120.28 90.0462 120.617 89.9298 121.15Z" fill="#FF4F84"/>
<path d="M85.4033 141.768L84.1329 147.552C84.0164 148.084 84.353 148.611 84.885 148.727C85.4181 148.844 85.9442 148.507 86.0606 147.975L87.331 142.19C87.4475 141.658 87.1109 141.132 86.5788 141.015C86.0458 140.898 85.5197 141.235 85.4033 141.768Z" fill="#FF4F84"/>
<path d="M263.166 106.256H235.35L232.513 117.856H266.874L263.166 106.256Z" fill="#F7620F"/>
<path d="M259.464 106.256H231.648L227.939 117.856H262.301L259.464 106.256Z" fill="#FFA329"/>
<path d="M239.583 109.455V110.62H237.937V115.514H236.464V110.62H234.835V109.455H239.583Z" fill="white"/>
<path d="M243.575 113.295L242.821 111.066L242.059 113.295H243.575ZM243.953 114.408H241.682L241.304 115.514H239.762L241.982 109.498H243.67L245.89 115.514H244.33L243.953 114.408Z" fill="white"/>
<path d="M250.133 115.514L248.855 113.628L247.759 115.514H246.079L248.016 112.395L246.019 109.455H247.759L249.001 111.28L250.072 109.455H251.744L249.833 112.506L251.872 115.514H250.133Z" fill="white"/>
<path d="M253.903 109.455V115.514H252.438V109.455H253.903Z" fill="white"/>
<path d="M151.631 179.484L151.608 179.486H139.029C131.646 179.486 125.665 188.469 125.665 199.543C125.665 210.618 131.646 219.601 139.029 219.601H151.608L151.631 219.603C159.014 219.603 165.001 210.621 165.001 199.543C165.001 188.465 159.014 179.484 151.631 179.484Z" fill="#261D4F"/>
<path d="M151.975 159.027H145.231C142.818 159.027 140.862 157.072 140.862 154.66V153.665C140.862 151.251 142.818 149.297 145.231 149.297H151.975C154.387 149.297 156.342 151.251 156.342 153.665V154.66C156.342 157.072 154.387 159.027 151.975 159.027Z" fill="#FF641F"/>
<path d="M321.383 179.486V219.601H308.778C301.395 219.601 295.413 210.618 295.413 199.543C295.413 188.469 301.395 179.486 308.778 179.486H321.383Z" fill="#423568"/>
<path d="M238.314 179.486V219.601H225.709C218.326 219.601 212.344 210.618 212.344 199.543C212.344 188.469 218.326 179.486 225.709 179.486H238.314Z" fill="#423568"/>
<path d="M239.083 199.543C239.083 201.903 238.807 204.163 238.313 206.265V192.822C238.807 194.924 239.083 197.184 239.083 199.543Z" fill="#423568"/>
<path d="M342.38 196.642C342.489 198.211 341.235 199.543 339.666 199.543H196.304C193.847 199.543 192.109 197.135 192.889 194.806L193.067 194.263L199.927 173.89L200.105 173.367C200.243 172.962 200.391 172.566 200.549 172.172L200.57 172.112C200.726 171.737 200.884 171.372 201.063 171.017L201.111 170.909C201.27 170.603 201.427 170.296 201.596 170.001C201.764 169.695 201.941 169.389 202.128 169.093C202.217 168.954 202.297 168.825 202.385 168.688C202.602 168.371 202.819 168.066 203.037 167.77C203.214 167.533 203.392 167.305 203.579 167.079C203.648 166.99 203.727 166.901 203.806 166.811C204.004 166.565 204.221 166.329 204.428 166.101C204.783 165.727 205.149 165.37 205.524 165.026C205.78 164.779 206.047 164.551 206.313 164.325C206.669 164.039 207.025 163.761 207.399 163.496C207.726 163.259 208.06 163.032 208.406 162.814L208.427 162.805C208.771 162.588 209.136 162.381 209.493 162.183C209.857 161.986 210.233 161.798 210.607 161.619C210.982 161.443 211.357 161.285 211.742 161.136L211.91 161.068C212.207 160.949 212.512 160.84 212.828 160.742C212.927 160.711 213.035 160.672 213.155 160.642C213.46 160.545 213.766 160.456 214.081 160.377L214.16 160.356L214.22 160.346L215.089 160.149L237.732 155.57L241.157 151.533L265.438 122.927C267.284 120.756 269.979 119.511 272.822 119.511H293.076C299.443 119.511 305.445 122.463 309.333 127.508L324.07 146.616C325.126 147.979 326.548 149.016 328.176 149.598L332.125 151.018L334.375 151.828C337.435 152.924 339.557 155.728 339.774 158.975L340.376 167.621L342.38 196.642Z" fill="#FFA329"/>
<path d="M342.216 191.297H213.407C212.821 191.297 212.344 190.82 212.344 190.233C212.344 189.645 212.821 189.169 213.407 189.169H342.216C342.804 189.169 343.28 189.645 343.28 190.233C343.28 190.82 342.804 191.297 342.216 191.297Z" fill="#FFBE2C"/>
<path d="M342.216 187.644H213.407C212.821 187.644 212.344 187.168 212.344 186.58C212.344 185.993 212.821 185.516 213.407 185.516H342.216C342.804 185.516 343.28 185.993 343.28 186.58C343.28 187.168 342.804 187.644 342.216 187.644Z" fill="#FFBE2C"/>
<path d="M305.277 202.714H254.146C251.811 202.714 249.919 200.822 249.919 198.487C249.919 196.154 251.811 194.261 254.146 194.261H305.277C307.612 194.261 309.504 196.154 309.504 198.487C309.504 200.822 307.612 202.714 305.277 202.714Z" fill="#B8B4EF"/>
<path d="M342.307 202.714H328.821C326.73 202.714 325.034 201.018 325.034 198.928V198.048C325.034 195.957 326.73 194.261 328.821 194.261H342.307C344.398 194.261 346.094 195.957 346.094 198.048V198.928C346.094 201.018 344.398 202.714 342.307 202.714Z" fill="#B8B4EF"/>
<path d="M237.731 155.57L215.089 160.149C214.792 160.209 214.506 160.267 214.219 160.346L214.16 160.356L214.081 160.377L189.197 165.993C187.953 166.278 187.065 167.384 187.065 168.657V170.741H175.576L172.526 167.691H139.123L136.291 170.524H124.801V168.657C124.801 167.384 123.913 166.278 122.669 165.993L114.22 164.087C116.658 162.153 119.55 160.781 122.689 160.149L145.332 155.57H237.731Z" fill="#FFA329"/>
<path d="M214.081 160.377C213.765 160.456 213.459 160.545 213.154 160.642C213.035 160.672 212.926 160.711 212.828 160.742C212.522 160.84 212.207 160.949 211.91 161.068L211.742 161.136C211.357 161.285 210.982 161.443 210.607 161.619C210.233 161.798 209.857 161.986 209.492 162.183C209.126 162.381 208.781 162.588 208.426 162.805L208.406 162.814C208.06 163.032 207.726 163.259 207.399 163.496C207.025 163.761 206.668 164.039 206.313 164.325C206.047 164.551 205.78 164.779 205.523 165.026C205.148 165.37 204.783 165.727 204.428 166.101C204.211 166.329 204.003 166.565 203.806 166.811C203.727 166.901 203.648 166.99 203.579 167.079C203.391 167.305 203.214 167.533 203.037 167.77C202.819 168.066 202.602 168.371 202.385 168.688C202.297 168.825 202.217 168.954 202.128 169.093C201.94 169.389 201.764 169.695 201.596 170.001C201.427 170.296 201.27 170.603 201.111 170.909L201.063 171.017C200.884 171.383 200.726 171.747 200.569 172.112L200.549 172.172C200.391 172.566 200.243 172.962 200.104 173.367L199.927 173.89L193.067 194.263L192.889 194.796C192.109 197.135 193.837 199.543 196.304 199.543H103.905C101.438 199.543 99.7003 197.135 100.49 194.796L100.668 194.263L107.538 173.87L107.705 173.367C108.959 169.644 111.249 166.436 114.22 164.087L122.669 165.993C123.913 166.278 124.801 167.384 124.801 168.657V170.524H136.291L139.124 167.691H172.526L175.576 170.741H187.065V168.657C187.065 167.384 187.954 166.278 189.197 165.993L214.081 160.377Z" fill="#FF8B2C"/>
<path d="M179.469 190.632V196.567C178.422 197.641 177.502 198.585 176.636 199.472H112.943C112.087 198.585 111.168 197.641 110.12 196.567V190.632C113.722 186.926 115.754 184.853 119.367 181.146H170.221L179.469 190.632Z" fill="#F7620F"/>
<path d="M176.809 191.588V196.928C175.842 197.894 174.993 198.744 174.193 199.543H115.384C114.595 198.744 113.746 197.894 112.778 196.928V191.588C114.032 190.323 115.078 189.278 116.075 188.28C116.756 187.6 117.418 186.949 118.099 186.266C119.066 185.3 120.092 184.274 121.316 183.049H168.271L176.809 191.588Z" fill="#423568"/>
<path d="M118.099 186.266V199.543H116.076V188.28C116.757 187.6 117.418 186.949 118.099 186.266Z" fill="#635489"/>
<path d="M126.015 183.049V199.543H123.992V183.049H126.015Z" fill="#635489"/>
<path d="M133.931 183.049V199.543H131.908V183.049H133.931Z" fill="#635489"/>
<path d="M141.848 183.049V199.543H139.824V183.049H141.848Z" fill="#635489"/>
<path d="M149.764 183.049V199.543H147.741V183.049H149.764Z" fill="#635489"/>
<path d="M157.68 183.049V199.543H155.657V183.049H157.68Z" fill="#635489"/>
<path d="M165.596 183.049V199.543H163.573V183.049H165.596Z" fill="#635489"/>
<path d="M173.513 188.291V199.543H171.489V186.266L173.513 188.291Z" fill="#635489"/>
<path d="M291.97 119.511H272.821C269.979 119.511 267.284 120.756 265.438 122.927L241.156 151.533L237.731 155.57H145.332L167.867 132.413C176 124.063 187.026 119.157 198.683 118.713C224.327 117.735 270.294 116.55 291.97 119.511Z" fill="#FF8B2C"/>
<path d="M263.434 120.726C263.346 120.815 263.267 120.913 263.178 121.013L236.359 152.609H152.35L169.989 134.475C177.629 126.639 187.855 122.089 198.791 121.674C211.702 121.18 230.95 120.598 249.3 120.598C254.353 120.598 259.062 120.638 263.434 120.726Z" fill="#423568"/>
<path d="M214.081 160.377C213.765 160.456 213.459 160.545 213.154 160.642C213.035 160.672 212.926 160.711 212.827 160.742C212.511 160.84 212.206 160.949 211.909 161.068L211.742 161.136C211.357 161.285 210.982 161.443 210.606 161.619C210.232 161.798 209.856 161.986 209.492 162.183C209.136 162.381 208.771 162.588 208.426 162.805L208.405 162.814C208.06 163.032 207.725 163.259 207.398 163.496C207.024 163.761 206.668 164.039 206.313 164.325C206.046 164.551 205.78 164.779 205.523 165.026C205.148 165.37 204.783 165.727 204.427 166.101C204.22 166.329 204.003 166.565 203.806 166.811C203.727 166.901 203.648 166.99 203.579 167.079C203.391 167.305 203.213 167.533 203.037 167.77C202.818 168.066 202.601 168.371 202.384 168.688C202.305 168.815 202.216 168.954 202.128 169.093C201.94 169.389 201.763 169.695 201.596 170.001C201.427 170.296 201.27 170.603 201.111 170.909L201.063 171.017C200.884 171.372 200.726 171.737 200.569 172.112L200.548 172.172C200.39 172.566 200.242 172.962 200.104 173.367L199.926 173.89H189.789C188.289 173.89 187.065 172.666 187.065 171.164V168.657C187.065 167.384 187.953 166.278 189.197 165.993L214.081 160.377Z" fill="white"/>
<path d="M215.089 160.149L214.17 165.163C213.252 170.217 208.84 173.89 203.707 173.89H199.927L200.104 173.367C200.243 172.962 200.391 172.566 200.549 172.172L200.569 172.112C200.726 171.737 200.884 171.372 201.063 171.017L201.111 170.909C201.27 170.603 201.427 170.296 201.596 170.001C201.764 169.695 201.94 169.389 202.128 169.093C202.217 168.954 202.297 168.825 202.385 168.688C202.602 168.371 202.819 168.066 203.037 167.77C203.214 167.533 203.391 167.305 203.579 167.079C203.648 166.99 203.727 166.901 203.806 166.811C204.003 166.565 204.22 166.329 204.428 166.101C204.783 165.727 205.148 165.37 205.523 165.026C205.78 164.779 206.047 164.551 206.313 164.325C206.668 164.039 207.025 163.761 207.399 163.496C207.726 163.259 208.06 163.032 208.406 162.814L208.426 162.805C208.771 162.588 209.136 162.381 209.492 162.183C209.857 161.986 210.233 161.798 210.607 161.619C210.982 161.443 211.357 161.285 211.742 161.136L211.91 161.068C212.207 160.949 212.512 160.84 212.828 160.742C212.926 160.711 213.035 160.672 213.154 160.642C213.459 160.545 213.765 160.456 214.081 160.377L214.16 160.356L214.219 160.346L215.089 160.149Z" fill="#ECE6FF"/>
<path d="M124.801 168.657V171.164C124.801 172.666 123.577 173.89 122.077 173.89H108.159C107.952 173.89 107.745 173.879 107.538 173.87L107.705 173.367C108.959 169.644 111.249 166.436 114.22 164.087L122.669 165.993C123.913 166.278 124.801 167.384 124.801 168.657Z" fill="white"/>
<path d="M251.679 199.543C251.679 210.621 245.693 219.603 238.31 219.603C230.926 219.603 224.94 210.621 224.94 199.543C224.94 188.465 230.926 179.484 238.31 179.484C245.693 179.484 251.679 188.465 251.679 199.543Z" fill="#635489"/>
<path d="M245.962 199.543C245.962 205.882 242.536 211.022 238.311 211.022C234.085 211.022 230.66 205.882 230.66 199.543C230.66 193.203 234.085 188.064 238.311 188.064C242.536 188.064 245.962 193.203 245.962 199.543Z" fill="#AFA6CC"/>
<path d="M240.924 199.836C240.924 203.267 239.071 206.047 236.785 206.047C234.499 206.047 232.646 203.267 232.646 199.836C232.646 196.407 234.499 193.625 236.785 193.625C239.071 193.625 240.924 196.407 240.924 199.836Z" fill="#635489"/>
<path d="M237.489 199.836C237.489 201.099 236.806 202.124 235.965 202.124C235.123 202.124 234.44 201.099 234.44 199.836C234.44 198.573 235.123 197.549 235.965 197.549C236.806 197.549 237.489 198.573 237.489 199.836Z" fill="#423568"/>
<path d="M236.786 199.836C236.786 200.517 236.418 201.068 235.965 201.068C235.511 201.068 235.144 200.517 235.144 199.836C235.144 199.157 235.511 198.605 235.965 198.605C236.418 198.605 236.786 199.157 236.786 199.836Z" fill="#AFA6CC"/>
<path d="M322.153 199.543C322.153 201.903 321.876 204.163 321.383 206.265V192.822C321.876 194.924 322.153 197.184 322.153 199.543Z" fill="#423568"/>
<path d="M334.749 199.543C334.749 210.621 328.764 219.603 321.38 219.603C313.997 219.603 308.01 210.621 308.01 199.543C308.01 188.465 313.997 179.484 321.38 179.484C328.764 179.484 334.749 188.465 334.749 199.543Z" fill="#635489"/>
<path d="M329.031 199.543C329.031 205.882 325.605 211.022 321.38 211.022C317.155 211.022 313.729 205.882 313.729 199.543C313.729 193.203 317.155 188.064 321.38 188.064C325.605 188.064 329.031 193.203 329.031 199.543Z" fill="#AFA6CC"/>
<path d="M323.995 199.836C323.995 203.267 322.142 206.047 319.855 206.047C317.569 206.047 315.716 203.267 315.716 199.836C315.716 196.407 317.569 193.625 319.855 193.625C322.142 193.625 323.995 196.407 323.995 199.836Z" fill="#635489"/>
<path d="M320.558 199.836C320.558 201.099 319.876 202.124 319.033 202.124C318.192 202.124 317.509 201.099 317.509 199.836C317.509 198.573 318.192 197.549 319.033 197.549C319.876 197.549 320.558 198.573 320.558 199.836Z" fill="#423568"/>
<path d="M319.855 199.836C319.855 200.517 319.488 201.068 319.034 201.068C318.581 201.068 318.213 200.517 318.213 199.836C318.213 199.157 318.581 198.605 319.034 198.605C319.488 198.605 319.855 199.157 319.855 199.836Z" fill="#AFA6CC"/>
<path d="M224.306 202.714H190.708C188.374 202.714 186.481 200.822 186.481 198.487C186.481 196.154 188.374 194.261 190.708 194.261H224.306C226.64 194.261 228.533 196.154 228.533 198.487C228.533 200.822 226.64 202.714 224.306 202.714Z" fill="#B8B4EF"/>
<path d="M194.365 202.714H99.9096C98.0124 202.714 96.4746 201.177 96.4746 199.28V197.696C96.4746 195.799 98.0124 194.261 99.9096 194.261H194.365C196.262 194.261 197.801 195.799 197.801 197.696V199.28C197.801 201.177 196.262 202.714 194.365 202.714Z" fill="#CFC9F7"/>
<path d="M215.089 143.694C210.163 143.694 206.175 147.682 206.175 152.609H208.791C208.791 149.123 211.604 146.311 215.089 146.311C218.572 146.311 221.385 149.123 221.385 152.609H224.001C224.001 147.682 220.013 143.694 215.089 143.694Z" fill="#261D4F"/>
<path d="M274.349 122.817L282.417 123.099C282.973 123.119 283.412 123.574 283.412 124.13V152.402C283.412 152.949 282.984 153.401 282.438 153.431L248.648 155.283C246.624 155.392 245.43 153.043 246.714 151.472L267.69 125.831C269.317 123.842 271.779 122.726 274.349 122.817Z" fill="#423568"/>
<path d="M317.738 151.581L287.759 153.225C287.228 153.255 286.783 152.833 286.783 152.302V124.161C286.783 123.638 287.218 123.219 287.741 123.237L296.861 123.559C299.901 123.667 302.724 125.158 304.531 127.605L319.485 147.871C320.59 149.36 319.583 151.483 317.738 151.581Z" fill="#423568"/>
<path d="M255.939 159.027H249.194C246.782 159.027 244.827 157.072 244.827 154.66V153.665C244.827 151.251 246.782 149.297 249.194 149.297H255.939C258.351 149.297 260.307 151.251 260.307 153.665V154.66C260.307 157.072 258.351 159.027 255.939 159.027Z" fill="#FF641F"/>
<path d="M278.478 165.673L271.811 165.987C271.1 166.02 270.495 165.471 270.461 164.759C270.428 164.048 270.979 163.444 271.689 163.41L278.357 163.096C279.07 163.062 279.673 163.611 279.706 164.324C279.741 165.035 279.191 165.64 278.478 165.673Z" fill="#423568"/>
<path d="M314.486 164.287L307.819 164.6C307.107 164.634 306.503 164.084 306.469 163.374C306.435 162.661 306.985 162.058 307.697 162.024L314.365 161.709C315.077 161.676 315.681 162.226 315.714 162.936C315.748 163.649 315.198 164.252 314.486 164.287Z" fill="#423568"/>
<path d="M340.376 167.621H338.52C336.349 167.621 334.503 166.043 334.157 163.89L332.124 151.018L334.375 151.828C334.552 151.888 334.72 151.956 334.888 152.035C337.671 153.25 339.566 155.914 339.774 158.975L340.109 163.85L340.376 167.621Z" fill="#FF4F84"/>
<path d="M340.109 163.85C338.125 163.664 336.487 162.152 336.171 160.139L334.888 152.035C337.671 153.25 339.566 155.914 339.774 158.975L340.109 163.85Z" fill="#FFA9E0"/>
<path d="M153.235 171.813H143.971V170.639H153.235V171.813Z" fill="#FFBE2C"/>
<path d="M284.458 175.448H281.378V172.369H284.458V175.448Z" fill="#423568"/>
<path d="M287.537 178.527H284.458V175.448H287.537V178.527Z" fill="#423568"/>
<path d="M278.163 175.448H275.084V172.369H278.163V175.448Z" fill="#423568"/>
<path d="M281.243 178.527H278.163V175.448H281.243V178.527Z" fill="#423568"/>
<path d="M275.085 178.527H272.005V175.448H275.085V178.527Z" fill="#423568"/>
<path d="M290.752 175.448H287.673V172.369H290.752V175.448Z" fill="#423568"/>
<path d="M293.831 178.527H290.752V175.448H293.831V178.527Z" fill="#423568"/>
<path d="M297.046 175.448H293.966V172.369H297.046V175.448Z" fill="#423568"/>
<path d="M300.126 178.527H297.046V175.448H300.126V178.527Z" fill="#423568"/>
<path d="M303.34 175.448H300.261V172.369H303.34V175.448Z" fill="#423568"/>
<path d="M306.419 178.527H303.34V175.448H306.419V178.527Z" fill="#423568"/>
<path d="M251.446 63.3039C248.467 62.8232 246.427 59.9983 246.908 57.0183C247.387 54.0384 250.212 51.9981 253.193 52.4788C256.173 52.9595 258.212 55.7845 257.733 58.7644C257.251 61.7444 254.426 63.7846 251.446 63.3039ZM255.986 35.1667C248.366 33.9378 234.473 38.8553 232.128 53.3958C230.275 64.8813 241.707 75.1033 245.803 83.6582C246.673 85.4625 249.011 85.8396 250.404 84.4005C256.982 77.567 271.048 71.4581 272.901 59.9726C275.246 45.4331 263.605 36.3956 255.986 35.1667Z" fill="#FF4F84"/>
</svg>
