<svg width="358" height="210" viewBox="0 0 358 210" fill="none" xmlns="http://www.w3.org/2000/svg">
<path d="M110.564 153.789C110.564 153.789 145.014 110.151 165.491 110.294C185.98 110.436 208.297 139.033 237.44 163.463C270.108 190.837 227.456 191.989 224.987 192.214C222.53 192.44 137.582 189.437 136.17 187.965C134.757 186.493 112.072 167.559 112.072 167.559L110.564 153.789Z" fill="#C5DDF9"/>
<path d="M287.293 155.105H288.753V138.972H287.293V155.105Z" fill="#355389"/>
<path d="M288.033 107.67L292.782 146.061H283.285L288.033 107.67Z" fill="#3C8F7C"/>
<path d="M291.06 132.136L284.282 137.952L284.543 135.839L290.846 130.438L291.06 132.136Z" fill="#50BFA5"/>
<path d="M290.015 123.72L285.873 125.144L286.062 123.565L289.837 122.271L290.015 123.72Z" fill="#50BFA5"/>
<path d="M89.0665 126.687L93.3162 160.97H84.8286L89.0665 126.687Z" fill="#3C8F7C"/>
<path d="M96.5453 131.733L99.7741 157.837H93.3164L96.5453 131.733Z" fill="#3C8F7C"/>
<path d="M103.002 139.496L106.231 165.611H99.7734L103.002 139.496Z" fill="#3C8F7C"/>
<path d="M81.1375 134.344L85.3753 168.627H76.8877L81.1375 134.344Z" fill="#3C8F7C"/>
<path d="M97.1746 145.004C133.974 151.13 189.185 206.151 231.232 206.151C273.278 206.151 282.336 192.986 298.112 195.776C313.876 198.553 335.054 206.151 335.054 206.151L22.5547 207.077C22.5547 207.077 60.3751 138.891 97.1746 145.004Z" fill="#86B1F2"/>
<path d="M230.365 128.979L234.615 163.25H226.127L230.365 128.979Z" fill="#3C8F7C"/>
<path d="M240.467 139.068L243.696 165.172H237.238L240.467 139.068Z" fill="#3C8F7C"/>
<path d="M215.015 153.005L218.244 179.109H211.787L215.015 153.005Z" fill="#3C8F7C"/>
<path d="M222.435 136.623L226.673 170.906H218.186L222.435 136.623Z" fill="#3C8F7C"/>
<path d="M263.959 145.004C227.16 151.13 171.949 206.151 129.902 206.151C87.8439 206.151 78.7984 192.986 63.022 195.776C47.2576 198.553 26.0801 206.151 26.0801 206.151L338.579 207.077C338.579 207.077 300.747 138.891 263.959 145.004Z" fill="#86B1F2"/>
<path d="M251.357 196.376H253.019V177.964H251.357V196.376Z" fill="#355389"/>
<path d="M252.195 142.262L257.608 186.065H246.77L252.195 142.262Z" fill="#3C8F7C"/>
<path d="M255.649 170.182L247.921 176.806L248.218 174.408L255.4 168.235L255.649 170.182Z" fill="#50BFA5"/>
<path d="M254.463 160.578L249.726 162.193L249.952 160.4L254.249 158.928L254.463 160.578Z" fill="#50BFA5"/>
<path d="M270.13 204.225H271.709V176.46H270.13V204.225Z" fill="#355389"/>
<path d="M270.5 126.96L278.311 183.003H262.701L270.5 126.96Z" fill="#3C8F7C"/>
<path d="M277.812 179.442L263.805 175.026L264.018 173.506L277.587 177.791L277.812 179.442Z" fill="#50BFA5"/>
<path d="M275.355 161.742L266.072 158.81L266.274 157.29L275.118 160.08L275.355 161.742Z" fill="#50BFA5"/>
<path d="M22.5547 207.077C22.5547 207.077 62.9036 172.034 114.921 169.886C132.383 169.162 203.917 183.656 264.15 195.04C266.678 195.515 272.15 200.204 274.715 200.69C303.228 206.056 329.807 207.184 338.401 207.528L22.5547 207.077Z" fill="#96D9C9"/>
<path d="M346.865 168.532L346.924 165.517C346.924 163.274 345.215 161.469 343.114 161.469C337.808 161.469 333.498 166.04 333.498 171.678V175.797C333.498 177.602 332.537 179.169 331.136 179.964C329.854 180.676 329.083 182.113 329.083 183.644V185.816C329.083 188.167 330.127 190.363 331.848 191.835C332.857 192.701 333.51 194.019 333.51 195.503V198.577C333.51 201.984 336.11 204.738 339.315 204.738H341.143C344.348 204.738 346.948 201.984 346.948 198.577C346.426 194.28 347.696 191.799 349.168 190.375C351.328 188.285 352.599 185.353 352.599 182.255V181.816C352.599 178.539 351.174 175.477 348.8 173.388C347.72 172.485 346.865 170.99 346.865 168.532Z" fill="#4E9B87"/>
<path d="M352.836 208.311C352.836 208.311 338.021 188.641 328.703 185.626C319.384 182.611 328.169 194.588 328.169 194.588C328.169 194.588 311.633 176.509 305.567 178.135C300.011 179.631 305.567 190.837 305.567 190.837C305.567 190.837 299.299 184.629 291.701 184.629C284.104 184.629 297.578 207.86 297.578 207.86L352.836 208.311Z" fill="#96D9C9"/>
<path d="M305.567 207.872C305.567 207.872 295.441 180.795 282.906 183.929C272.744 186.469 279.973 200.085 279.344 199.467C278.727 198.85 273.278 189.603 264.458 189.603C255.638 189.603 267.165 202.079 267.165 202.079C267.165 202.079 248.385 196.215 246.913 202.376C245.691 207.492 252.516 207.872 252.516 207.872H305.567Z" fill="#3C8F7C"/>
<path d="M74.1212 202.815C74.1805 202.483 74.2043 202.127 74.2043 201.782C74.2043 197.865 70.5362 194.684 66.0016 194.684C61.4669 194.684 57.7988 197.865 57.7988 201.782C57.7988 202.139 57.8226 202.483 57.8819 202.815H74.1212Z" fill="#3C8F7C"/>
<path d="M83.4044 201.07C83.4638 200.595 83.4875 200.109 83.4875 199.61C83.4875 194.09 79.8194 189.603 75.2848 189.603C70.7501 189.603 67.082 194.078 67.082 199.61C67.082 200.109 67.1058 200.595 67.1651 201.07H83.4044Z" fill="#50BFA5"/>
<path d="M80.4015 207.207C80.3421 206.875 80.3184 206.519 80.3184 206.175C80.3184 202.257 83.9864 199.076 88.5211 199.076C93.0557 199.076 96.7238 202.257 96.7238 206.175C96.7238 206.531 96.7001 206.875 96.6407 207.207H80.4015Z" fill="#50BFA5"/>
<path d="M67.2841 207.208C67.2129 206.733 67.1772 206.246 67.1772 205.747C67.1772 200.228 71.8306 195.74 77.5761 195.74C83.3216 195.74 87.9749 200.216 87.9749 205.747C87.9749 206.246 87.9393 206.733 87.8681 207.208H67.2841Z" fill="#3C8F7C"/>
<path d="M75.261 195.74C72.3882 195.74 69.8241 197.165 68.1385 199.385C67.2719 199.183 66.3579 199.064 65.4082 199.064C60.3156 199.064 56.1846 202.246 56.1846 206.163C56.1846 206.519 56.2202 206.863 56.2795 207.196H84.3896C84.449 206.721 84.4846 206.234 84.4846 205.736C84.4846 200.228 80.3535 195.74 75.261 195.74Z" fill="#50BFA5"/>
<path d="M39.7072 186.136C37.2975 182.361 36.8464 177.815 36.8939 174.657C36.9413 171.227 37.5824 168.662 37.5824 168.639L37.4043 168.579C37.3924 168.603 36.7633 171.191 36.7039 174.645C36.6564 177.839 37.1075 182.433 39.5529 186.255L39.7072 186.136Z" fill="#3C8F7C"/>
<path d="M38.1753 167.998C38.1159 168.769 37.7717 169.422 37.2731 169.826C36.8458 169.291 36.6084 168.544 36.6677 167.772C36.7271 167 37.0713 166.347 37.5699 165.944C37.9972 166.49 38.2347 167.226 38.1753 167.998Z" fill="#3C8F7C"/>
<path d="M36.5373 169.79C36.9528 170.467 37.0715 171.227 36.9409 171.891C36.3117 171.737 35.7063 171.298 35.3027 170.633C34.8872 169.957 34.7685 169.197 34.8991 168.532C35.5283 168.686 36.1337 169.126 36.5373 169.79Z" fill="#3C8F7C"/>
<path d="M35.6231 171.903C36.2641 172.319 36.6915 172.96 36.8576 173.624C36.2522 173.791 35.54 173.696 34.9108 173.28C34.2698 172.865 33.8425 172.224 33.6763 171.559C34.2698 171.381 34.9821 171.488 35.6231 171.903Z" fill="#3C8F7C"/>
<path d="M35.9079 174.835C36.4065 175.167 36.727 175.725 36.8101 176.343C36.2878 176.568 35.6942 176.544 35.1956 176.212C34.6971 175.88 34.3766 175.322 34.2935 174.704C34.8039 174.479 35.3974 174.503 35.9079 174.835Z" fill="#3C8F7C"/>
<path d="M37.9857 171.357C38.5555 171.061 39.1846 171.037 39.7307 171.251C39.5882 171.832 39.2084 172.366 38.6386 172.663C38.0688 172.96 37.4396 172.984 36.8936 172.77C37.036 172.188 37.4159 171.654 37.9857 171.357Z" fill="#3C8F7C"/>
<path d="M37.9261 173.387C38.4959 173.091 39.1251 173.067 39.6711 173.28C39.5287 173.862 39.1488 174.396 38.579 174.693C38.0092 174.99 37.38 175.014 36.834 174.8C36.9764 174.206 37.3563 173.684 37.9261 173.387Z" fill="#3C8F7C"/>
<path d="M36.2641 178.052C36.5609 178.124 36.8101 178.325 36.9645 178.587C36.7508 178.765 36.4659 178.836 36.1691 178.776C35.8724 178.705 35.6231 178.503 35.4688 178.242C35.6824 178.064 35.9673 177.981 36.2641 178.052Z" fill="#3C8F7C"/>
<path d="M38.71 188.796C33.19 187.478 28.9759 183.383 26.4118 180.189C23.634 176.723 22.1383 173.518 22.1264 173.494L21.9009 173.613C21.9127 173.648 23.4203 176.865 26.21 180.355C28.7978 183.584 33.0594 187.715 38.6506 189.045L38.71 188.796Z" fill="#3C8F7C"/>
<path d="M22.1975 172.272C22.7791 173.103 22.9691 174.1 22.8148 175.002C21.9482 174.895 21.1054 174.397 20.5118 173.554C19.9183 172.711 19.7402 171.726 19.8945 170.824C20.773 170.942 21.6158 171.429 22.1975 172.272Z" fill="#3C8F7C"/>
<path d="M22.0549 175.702C23.0164 175.963 23.7761 176.592 24.1916 177.388C23.4438 177.874 22.4704 178.052 21.5088 177.791C20.5473 177.53 19.7875 176.901 19.3721 176.106C20.1199 175.619 21.0933 175.453 22.0549 175.702Z" fill="#3C8F7C"/>
<path d="M22.8743 178.741C23.8477 178.516 24.8092 178.718 25.5334 179.216C25.0704 180 24.2751 180.617 23.3016 180.843C22.3282 181.068 21.3667 180.866 20.6426 180.368C21.1055 179.584 21.889 178.967 22.8743 178.741Z" fill="#3C8F7C"/>
<path d="M25.0706 181.495C26.044 181.27 27.0055 181.471 27.7296 181.97C27.2667 182.753 26.4713 183.371 25.4979 183.596C24.5245 183.822 23.563 183.62 22.8389 183.121C23.3018 182.338 24.0972 181.733 25.0706 181.495Z" fill="#3C8F7C"/>
<path d="M24.4174 176.913C24.3699 175.975 24.6785 175.085 25.2009 174.456C25.7825 174.954 26.1861 175.75 26.2336 176.699C26.2811 177.637 25.9725 178.527 25.4501 179.157C24.8566 178.646 24.4649 177.851 24.4174 176.913Z" fill="#3C8F7C"/>
<path d="M26.7082 179.762C26.6488 178.824 26.9456 177.934 27.4561 177.293C28.0496 177.78 28.4651 178.575 28.5244 179.513C28.5838 180.451 28.287 181.341 27.7766 181.982C27.183 181.495 26.7675 180.7 26.7082 179.762Z" fill="#3C8F7C"/>
<path d="M28.6073 184.226C28.9635 183.988 29.3789 183.941 29.7469 184.06C29.6876 184.451 29.462 184.819 29.1059 185.057C28.7498 185.294 28.3343 185.342 27.9663 185.223C28.0257 184.819 28.2512 184.451 28.6073 184.226Z" fill="#3C8F7C"/>
<path d="M53.3348 196.606L53.5722 196.595C53.2279 190.279 55.5427 184.332 57.5489 180.45C59.7213 176.248 62.0123 173.506 62.0361 173.47L61.858 173.292C61.8343 173.316 59.5313 176.082 57.3352 180.308C55.3291 184.213 52.9905 190.22 53.3348 196.606Z" fill="#3C8F7C"/>
<path d="M63.0927 173.102C62.5466 174.016 61.7632 174.586 60.9678 174.752C60.8372 173.791 61.0272 172.722 61.5732 171.797C62.1193 170.882 62.9028 170.313 63.6981 170.146C63.8287 171.108 63.6388 172.188 63.0927 173.102Z" fill="#3C8F7C"/>
<path d="M60.1723 174.206C60.2079 175.31 59.8755 176.342 59.3295 177.078C58.724 176.461 58.3204 175.511 58.2848 174.396C58.2492 173.292 58.5816 172.259 59.1277 171.523C59.7331 172.14 60.1367 173.09 60.1723 174.206Z" fill="#3C8F7C"/>
<path d="M57.8459 176.177C58.297 177.126 58.3801 178.207 58.1427 179.156C57.3711 178.954 56.647 178.349 56.1959 177.399C55.7448 176.45 55.6617 175.37 55.8991 174.42C56.6707 174.622 57.3948 175.239 57.8459 176.177Z" fill="#3C8F7C"/>
<path d="M56.2434 181.032C56.457 181.411 56.5283 181.863 56.457 182.266C56.1247 182.207 55.8042 181.981 55.5905 181.601C55.3768 181.222 55.3056 180.77 55.3768 180.367C55.7092 180.426 56.0297 180.652 56.2434 181.032Z" fill="#3C8F7C"/>
<path d="M55.5544 182.777C55.7681 183.157 55.8393 183.608 55.7681 184.012C55.4357 183.952 55.1152 183.727 54.9015 183.347C54.6878 182.967 54.6166 182.516 54.6878 182.112C55.0202 182.172 55.3407 182.397 55.5544 182.777Z" fill="#3C8F7C"/>
<path d="M60.8015 177.127C61.6206 177.139 62.3329 177.554 62.7958 178.195C62.2735 178.824 61.5256 179.216 60.7184 179.204C59.8993 179.192 59.1871 178.777 58.7241 178.136C59.2346 177.507 59.9824 177.115 60.8015 177.127Z" fill="#3C8F7C"/>
<path d="M59.4719 179.583C60.291 179.595 61.0033 180.011 61.4662 180.652C60.9439 181.281 60.196 181.673 59.3888 181.661C58.5697 181.649 57.8575 181.233 57.3945 180.592C57.9168 179.963 58.6647 179.572 59.4719 179.583Z" fill="#3C8F7C"/>
<path d="M57.2878 182.943C57.822 182.955 58.285 183.216 58.5818 183.632C58.2375 184.035 57.7508 184.297 57.2285 184.285C56.6943 184.273 56.2313 184.012 55.9346 183.596C56.267 183.193 56.7537 182.943 57.2878 182.943Z" fill="#3C8F7C"/>
<path d="M32.7394 206.97C32.7394 205.914 39.0903 207.16 39.6245 205.724C40.1587 204.288 34.1877 204.205 34.1877 202.27C34.1877 200.335 37.2266 201.688 39.0191 201.688C40.7997 201.688 35.4935 200.857 35.4935 200.168C35.4935 199.48 37.3572 199.848 37.3572 199.112C37.3572 198.388 27.5756 197.83 28.7271 196.049C29.8667 194.269 35.1255 196.572 36.5737 195.646C38.0219 194.72 28.8695 193.711 28.6321 192.346C28.4066 190.969 35.3748 193.521 36.36 192.535C37.3453 191.55 25.332 188.001 25.8425 185.389C26.3411 182.778 34.9474 188.725 37.096 188.084C39.2446 187.443 26.258 178.291 29.2732 174.729C32.2883 171.168 38.0576 186.529 40.0281 185.983C41.9987 185.437 37.559 176.272 39.577 174.682C41.5832 173.091 47.3524 187.585 47.7204 190.553C48.0884 193.533 48.8125 184.155 51.9702 183.051C55.1278 181.959 52.0651 188.856 52.6112 190.969C53.1572 193.07 55.7213 185.567 59.1757 186.125C62.6301 186.671 52.9317 193.533 53.8932 195.551C54.8548 197.569 62.3452 188.832 64.6838 191.182C67.0342 193.533 55.662 200.038 56.2911 201.818C56.9084 203.599 63.7341 200.548 65.6928 202.507C67.6515 204.466 58.3685 205.712 57.134 205.712C55.8994 205.712 51.1986 207.255 55.7926 206.959C60.3628 206.662 32.7394 208.015 32.7394 206.97Z" fill="#3C8F7C"/>
<path d="M50.8428 208.181C50.8428 208.181 58.4876 208.596 60.7193 207.184C62.951 205.783 61.1941 204.691 61.1941 204.691C61.1941 204.691 68.2691 204.536 68.2454 202.863C68.2335 201.189 66.5122 201.284 66.5122 201.284C66.5122 201.284 70.0854 198.862 69.4206 197.343C68.3997 195.016 62.583 199.064 62.583 199.064C62.583 199.064 64.4942 196.797 62.951 196.274C58.7131 194.826 50.8428 208.181 50.8428 208.181Z" fill="#50BFA5"/>
<path d="M69.4196 197.342C70.0844 198.85 66.5113 201.283 66.5113 201.283C66.5113 201.283 69.0872 201.248 68.6718 202.874C68.2563 204.5 61.7748 205.046 61.7748 205.046C61.7748 205.046 64.0421 205.486 61.8104 206.886C59.5787 208.287 50.8418 208.168 50.8418 208.168L69.4196 197.342Z" fill="#96D9C9"/>
<path d="M19.5277 141.432C19.5396 141.016 20.1094 140.696 20.418 141.064C20.7148 141.432 20.7029 141.182 20.9997 141.978C21.8425 144.245 23.089 146.441 24.5253 148.364C27.2912 152.044 30.0334 153.896 33.1435 155.736C31.8615 152.851 31.0068 149.765 30.9 146.655C30.8644 145.527 30.8762 144.352 31.3629 143.307C31.4935 143.022 32.0158 143.082 32.0752 143.402C32.3363 145.005 31.9565 146.215 32.4669 149.088C33.7015 155.938 38.6041 163.203 43.3406 168.295C42.4384 159.677 41.9992 149.895 43.6136 141.206C43.8748 139.781 44.3021 138.428 44.6938 137.027C44.7888 136.695 45.2518 136.838 45.1924 137.17C45.1093 137.633 44.3377 143.616 44.2902 144.019C43.5424 150.631 43.6848 157.968 44.2784 164.651C47.9465 159.677 50.4037 153.872 51.5552 147.806C51.8994 146.014 51.9825 144.162 52.4574 142.405C52.5286 142.168 52.9203 142.132 52.9678 142.405C53.4545 145.04 52.4811 149.705 51.7689 152.246C50.3206 157.386 48.0058 161.992 44.8482 166.099C44.7295 166.253 49.9289 206.46 49.7864 206.97C49.549 207.825 48.0533 208.43 47.8277 206.911C47.7328 206.294 44.8719 181.852 43.5899 170.527C43.1032 170.254 42.7945 169.779 41.5362 168.366C38.6397 165.102 35.767 161.054 33.8558 157.22C32.7043 157.148 24.3948 153.112 20.2756 143.913C20.1569 143.651 19.6227 142.405 19.5396 142.12C19.4565 141.871 19.5158 141.669 19.5277 141.432Z" fill="#184655"/>
<path d="M46.2015 128.397C46.1066 127.162 46.0591 125.892 46.0591 124.61C46.0591 110.246 52.1488 98.613 59.6749 98.613C67.1891 98.613 73.2907 110.258 73.2907 124.61C73.2907 125.892 73.2432 127.162 73.1483 128.397H46.2015Z" fill="#50BFA5"/>
<path d="M30.805 122.011C30.7101 120.266 30.6626 118.485 30.6626 116.669C30.6626 96.4173 36.7523 79.9999 44.2784 79.9999C51.8045 79.9999 57.8824 96.4054 57.8824 116.657C57.8824 118.473 57.8349 120.254 57.7399 121.999H30.805V122.011Z" fill="#96D9C9"/>
<path d="M35.7791 144.471C35.8741 143.236 35.9216 141.966 35.9216 140.684C35.9216 126.32 29.8319 114.687 22.3058 114.687C14.7915 114.687 8.68994 126.332 8.68994 140.684C8.68994 141.966 8.73742 143.236 8.83239 144.471H35.7791Z" fill="#96D9C9"/>
<path d="M57.5737 144.47C57.6924 142.725 57.7518 140.945 57.7518 139.129C57.7518 118.877 50.0239 102.46 40.4916 102.46C30.9593 102.46 23.2314 118.877 23.2314 139.129C23.2314 140.945 23.2908 142.725 23.4095 144.47H57.5737Z" fill="#50BFA5"/>
<path d="M44.3262 102.46C49.0864 102.46 53.348 107.671 56.1495 115.838C57.574 115.09 59.0935 114.687 60.6723 114.687C69.1243 114.687 75.9856 126.332 75.9856 140.684C75.9856 141.966 75.9263 143.236 75.8195 144.47H29.1672C29.0603 142.725 29.001 140.945 29.001 139.129C29.0128 118.877 35.8623 102.46 44.3262 102.46Z" fill="#96D9C9"/>
<path d="M21.1416 201.153C21.1891 200.69 21.2128 200.204 21.2128 199.717C21.2128 194.292 18.1264 189.888 14.3159 189.888C10.5054 189.888 7.41895 194.292 7.41895 199.717C7.41895 200.204 7.44269 200.679 7.49017 201.153H21.1416Z" fill="#3C8F7C"/>
<path d="M28.9409 198.732C28.9884 198.067 29.0121 197.402 29.0121 196.714C29.0121 189.057 25.9257 182.861 22.1152 182.861C18.3047 182.861 15.2183 189.069 15.2183 196.714C15.2183 197.402 15.242 198.079 15.2895 198.732H28.9409Z" fill="#50BFA5"/>
<path d="M26.4125 207.219C26.3651 206.756 26.3413 206.269 26.3413 205.782C26.3413 200.358 29.4277 195.953 33.2383 195.953C37.0488 195.953 40.1352 200.358 40.1352 205.782C40.1352 206.269 40.1115 206.744 40.064 207.219H26.4125Z" fill="#50BFA5"/>
<path d="M15.384 207.219C15.3247 206.554 15.2891 205.89 15.2891 205.201C15.2891 197.544 19.2064 191.348 24.026 191.348C28.8574 191.348 32.7629 197.556 32.7629 205.201C32.7629 205.89 32.7273 206.566 32.6679 207.219H15.384Z" fill="#3C8F7C"/>
<path d="M22.0917 191.348C19.6819 191.348 17.5214 193.318 16.0969 196.405C15.3728 196.12 14.6012 195.966 13.8058 195.966C9.52048 195.966 6.0542 200.37 6.0542 205.795C6.0542 206.281 6.07794 206.756 6.1373 207.231H29.7602C29.8196 206.566 29.8433 205.901 29.8433 205.213C29.8433 197.556 26.377 191.348 22.0917 191.348Z" fill="#50BFA5"/>
<path d="M152.778 96.7833V95.8993H149.793V96.7833H152.778Z" fill="#F7CC7F"/>
<path d="M156.08 116.638V95.7966C156.08 94.4216 154.96 93.3019 153.585 93.3019H149.244C147.869 93.3019 146.75 94.4216 146.75 95.7966V116.638C146.75 118.013 147.869 119.133 149.244 119.133H153.585C154.96 119.133 156.08 118.013 156.08 116.638Z" fill="#F47458"/>
<path d="M151.424 119.133H153.919C155.117 119.133 156.08 118.602 156.08 117.954V94.4805C156.08 93.8323 155.392 93.3019 154.214 93.3019H151.424V119.133Z" fill="#B75742"/>
<path d="M151.83 108.879V102.868H150.73V108.879H151.83Z" fill="#1A1A1A"/>
<path d="M164.959 116.599V101.435C164.959 100.04 163.82 98.9006 162.425 98.9006H158.162C156.768 98.9006 155.628 100.04 155.628 101.435V116.599C155.628 117.994 156.768 119.133 158.162 119.133H162.425C163.82 119.133 164.959 117.994 164.959 116.599Z" fill="#355389"/>
<path d="M160.304 119.133H162.798C163.997 119.133 164.959 118.72 164.959 118.21V99.8432C164.959 99.3325 163.997 98.92 162.798 98.92H160.304V119.133Z" fill="#5184CE"/>
<path d="M161.656 101.611V100.923H158.67V101.611H161.656Z" fill="#F7CC7F"/>
<path d="M160.719 111.105V106.391H159.619V111.105H160.719Z" fill="#1A1A1A"/>
<path d="M116.185 119.467H115.733V124.004H116.185V119.467Z" fill="#13375B"/>
<path d="M170.204 119.467H169.752V124.004H170.204V119.467Z" fill="#13375B"/>
<path d="M150.698 109.802H119.897C118.385 109.802 117.167 111.02 117.167 112.533V116.383C117.167 117.895 118.385 119.113 119.897 119.113H150.698C152.211 119.113 153.428 117.895 153.428 116.383V112.533C153.448 111.02 152.211 109.802 150.698 109.802Z" fill="#B75742"/>
<path d="M153.448 114.458V111.963C153.448 110.765 152.702 109.802 151.798 109.802H118.837C117.933 109.802 117.187 110.765 117.187 111.963V114.458H153.448Z" fill="#91342A"/>
<path d="M123.021 113.102H121.784V116.088H123.021V113.102Z" fill="#F7CC7F"/>
<path d="M148.832 113.102H147.595V116.088H148.832V113.102Z" fill="#F7CC7F"/>
<path d="M139.031 114.046H130.584V115.146H139.031V114.046Z" fill="#1A1A1A"/>
<path d="M145.276 100.472H125.338C123.708 100.472 122.411 101.788 122.411 103.399V106.856C122.411 108.486 123.727 109.783 125.338 109.783H145.276C146.906 109.783 148.203 108.466 148.203 106.856V103.418C148.222 101.788 146.906 100.472 145.276 100.472Z" fill="#4E9B87"/>
<path d="M148.222 105.147V102.632C148.222 101.434 147.692 100.472 147.044 100.472H123.57C122.922 100.472 122.392 101.434 122.392 102.632V105.127H148.222V105.147Z" fill="#3C8F7C"/>
<path d="M125.869 103.791H124.985V106.777H125.869V103.791Z" fill="#F7CC7F"/>
<path d="M168.219 119.113L146.867 119.094L146.514 109.586H168.219C170.852 109.586 172.993 111.727 172.993 114.36C172.993 116.992 170.852 119.113 168.219 119.113Z" fill="#FAE0B2"/>
<path d="M151.425 114.36C151.425 116.992 149.461 119.133 147.044 119.133C144.628 119.133 142.664 116.992 142.664 114.36C142.664 111.727 144.628 109.586 147.044 109.586C149.461 109.586 151.425 111.727 151.425 114.36Z" fill="#F7CC7F"/>
<path d="M155.943 119.565C155.747 119.408 155.707 119.133 155.845 118.916C157.298 116.874 157.691 114.693 157.043 112.454C156.689 111.197 156.061 110.254 155.727 109.782C155.589 109.586 155.609 109.331 155.786 109.173C155.982 108.997 156.297 109.016 156.473 109.252C156.866 109.782 157.514 110.823 157.927 112.179C158.457 113.947 158.615 116.638 156.611 119.486C156.454 119.683 156.159 119.722 155.943 119.565Z" fill="#F47458"/>
<path d="M163.761 119.565C163.564 119.408 163.525 119.133 163.663 118.916C165.116 116.874 165.509 114.693 164.861 112.454C164.507 111.197 163.879 110.254 163.545 109.782C163.407 109.586 163.427 109.331 163.604 109.173C163.8 108.997 164.114 109.016 164.291 109.252C164.684 109.782 165.332 110.823 165.745 112.179C166.275 113.947 166.432 116.638 164.429 119.486C164.252 119.683 163.957 119.722 163.761 119.565Z" fill="#F47458"/>
<path d="M150.659 113.495C150.423 112.002 149.617 111.236 148.969 110.863C148.026 110.313 146.789 110.234 145.708 110.647C144.667 111.039 143.842 111.963 143.528 113.023C143.253 113.966 143.449 114.948 144.078 115.754C145.119 117.109 146.73 116.893 147.516 116.559C148.223 116.245 148.753 115.518 148.871 114.713C148.969 114.045 148.655 113.416 148.085 113.043C147.516 112.67 146.789 112.67 146.239 113.043C145.826 113.318 145.414 113.829 145.807 114.831L146.121 114.713C145.866 114.084 145.964 113.632 146.416 113.338C146.867 113.043 147.437 113.043 147.908 113.338C148.38 113.632 148.616 114.143 148.537 114.673C148.439 115.381 147.987 116.009 147.378 116.264C146.691 116.559 145.257 116.756 144.333 115.577C143.626 114.654 143.666 113.75 143.842 113.161C144.117 112.198 144.883 111.354 145.807 111C146.808 110.607 147.928 110.686 148.792 111.177C149.617 111.648 150.148 112.473 150.305 113.573C150.521 114.988 150.266 116.107 149.519 116.913C148.125 118.425 145.178 118.406 144.667 118.386C144.844 118.504 145.041 118.622 145.237 118.72H145.257C146.16 118.72 148.439 118.563 149.755 117.129C150.6 116.245 150.894 115.027 150.659 113.495Z" fill="#F47458"/>
<path d="M144.943 103.791H144.059V106.777H144.943V103.791Z" fill="#F7CC7F"/>
<path d="M137.969 104.735H131.958V105.835H137.969V104.735Z" fill="#1A1A1A"/>
<path d="M130.03 100.083L119.877 119.334L120.172 119.49L130.326 100.239L130.03 100.083Z" fill="black"/>
<path d="M141.432 99.9353L141.136 100.091L151.557 119.846L151.853 119.69L141.432 99.9353Z" fill="black"/>
<path d="M162.886 98.6477L162.577 98.7738L171.02 119.494L171.33 119.368L162.886 98.6477Z" fill="black"/>
<path d="M152.764 93.1206L152.449 93.2317L161.703 119.461L162.018 119.35L152.764 93.1206Z" fill="black"/>
<path d="M172.266 119.113H113.749V119.722H172.266V119.113Z" fill="#13375B"/>
<path d="M72.6162 184.604C72.6162 184.604 117.265 192.01 117.815 191.696C118.346 191.381 124.14 166.415 124.14 166.415C124.14 166.415 87.2111 159.775 86.6218 159.775C86.0325 159.775 77.9984 166.199 77.8806 166.631C77.7627 167.063 72.6162 184.604 72.6162 184.604Z" fill="#183658"/>
<path d="M208.842 190.949C209.922 191.047 264 189.888 264 189.888L259.934 177.454C259.934 177.454 252.43 166.12 248.482 166.316C244.514 166.532 220.962 162.702 216.895 165.53C212.829 168.359 209.195 166.1 207.251 172.857C205.326 179.595 203.813 180.361 205.326 184.427C206.799 188.493 208.842 190.949 208.842 190.949Z" fill="#183658"/>
<path d="M95.1664 207.469C105.332 207.469 113.572 199.228 113.572 189.063C113.572 178.898 105.332 170.657 95.1664 170.657C85.0012 170.657 76.7607 178.898 76.7607 189.063C76.7607 199.228 85.0012 207.469 95.1664 207.469Z" fill="#1A1A1A"/>
<path d="M95.1663 201.87C102.24 201.87 107.974 196.136 107.974 189.063C107.974 181.989 102.24 176.255 95.1663 176.255C88.0929 176.255 82.3589 181.989 82.3589 189.063C82.3589 196.136 88.0929 201.87 95.1663 201.87Z" fill="#9E9DA2"/>
<path d="M95.166 197.627C99.896 197.627 103.73 193.793 103.73 189.063C103.73 184.333 99.896 180.498 95.166 180.498C90.436 180.498 86.6016 184.333 86.6016 189.063C86.6016 193.793 90.436 197.627 95.166 197.627Z" fill="#D8D9DD"/>
<path d="M236.893 207.469C247.058 207.469 255.298 199.228 255.298 189.063C255.298 178.898 247.058 170.657 236.893 170.657C226.727 170.657 218.487 178.898 218.487 189.063C218.487 199.228 226.727 207.469 236.893 207.469Z" fill="#1A1A1A"/>
<path d="M236.893 201.87C243.967 201.87 249.701 196.136 249.701 189.063C249.701 181.989 243.967 176.255 236.893 176.255C229.82 176.255 224.086 181.989 224.086 189.063C224.086 196.136 229.82 201.87 236.893 201.87Z" fill="#9E9DA2"/>
<path d="M228.329 189.063C228.329 193.797 232.159 197.627 236.893 197.627C241.627 197.627 245.458 193.797 245.458 189.063C245.458 184.329 241.627 180.498 236.893 180.498C232.159 180.479 228.329 184.329 228.329 189.063Z" fill="#D8D9DD"/>
<path d="M279.145 171.521C277.593 161.267 272.565 159.107 257.675 156.121C241.253 152.84 220.412 142.135 220.412 142.135C220.412 142.135 184.858 124.711 176.156 122.708C167.454 120.704 146.023 121.274 128.03 121.431C110.037 121.568 99.4686 126.577 90.3345 133.708C81.2004 140.838 65.3483 146.28 65.3483 146.28L62.4608 146.79C59.4946 147.321 57.3535 149.894 57.3535 152.899V178.357C57.3535 181.245 59.2982 183.759 62.0875 184.505L72.4984 187.255C73.3431 187.393 74.1288 186.804 74.2271 185.939C75.3664 175.528 84.363 167.612 95.1078 167.612C106.521 167.632 115.89 177.002 115.89 188.434C115.89 189.73 115.773 191.007 115.537 192.225C115.301 193.502 116.283 194.661 117.58 194.661H213.34C215.207 194.661 216.641 193.03 216.405 191.184C216.287 190.3 216.228 189.396 216.228 188.473C216.189 177.198 225.323 167.848 236.598 167.612C248.286 167.376 257.832 176.766 257.832 188.414C257.832 189.18 257.793 189.947 257.715 190.693C257.479 192.814 259.129 194.661 261.25 194.661H275.02C277.515 194.661 279.558 192.638 279.558 190.123V176.786C279.519 175.057 279.42 173.269 279.145 171.521Z" fill="#F7CC7F"/>
<path d="M57.9625 155.925H69.2967C70.2592 155.925 70.927 156.907 70.5538 157.81L69.277 160.855C68.0591 163.762 65.2305 165.648 62.0876 165.648H57.9625C57.1571 165.648 56.4893 165 56.4893 164.175V157.398C56.4893 156.573 57.1571 155.925 57.9625 155.925Z" fill="#CF283C"/>
<path d="M261.112 160.639C267.359 161.602 274.548 167.514 274.548 167.514C276.277 169.361 274.843 172.366 272.329 172.209L260.15 171.443C257.616 171.286 255.455 169.557 254.768 167.122C253.569 163.016 254.571 159.638 261.112 160.639Z" fill="#EAFCFC"/>
<path d="M57.4123 179.32C56.6266 179.3 56.0765 180.086 56.3712 180.813C57.1766 182.875 58.9248 184.486 61.1642 185.075L72.8322 188.159C73.7751 188.316 74.6591 187.648 74.7769 186.686C74.993 184.702 75.4644 182.816 76.1519 181.029C76.3877 180.42 75.9359 179.771 75.3073 179.752L57.4123 179.32Z" fill="#EAB054"/>
<path d="M257.911 184.113C257.027 184.093 256.34 184.859 256.458 185.743C256.575 186.725 256.654 187.707 256.654 188.729C256.654 189.593 256.615 190.418 256.516 191.263C256.261 193.62 258.088 195.683 260.445 195.683H275.728C278.497 195.683 280.756 193.424 280.756 190.654V186.706C280.756 185.586 279.853 184.663 278.733 184.643L257.911 184.113Z" fill="#EAB054"/>
<path opacity="0.5" d="M220.431 148.048C220.235 147.93 199.983 136.831 186.566 130.604C173.268 124.456 158.437 125.104 157.809 125.124C156.1 125.085 120.604 124.319 109.702 127.717C98.7021 131.135 84.4018 146.751 83.7929 147.419L83.6357 147.596L87.4858 165.668L87.8983 165.648C99.095 165.019 107.659 168.005 112.688 174.271C116.479 179.005 116.951 184.014 116.951 184.073L116.99 184.505L157.357 185.547H157.828L158.319 185.566L214.578 186.666V186.175C214.853 167.887 220.647 148.814 220.687 148.617L220.804 148.244L220.431 148.048ZM117.835 183.543C117.638 182.188 116.794 177.905 113.454 173.702C109.859 169.184 102.552 163.959 88.2519 164.666L84.6768 147.891C86.3269 146.103 99.8807 131.803 109.997 128.64C120.113 125.478 153.016 126.008 157.357 126.087V184.564L117.835 183.543ZM213.595 185.664L158.3 184.584V126.087C160.893 126.008 174.191 125.929 186.173 131.488C198.608 137.244 216.915 147.223 219.645 148.716C218.82 151.446 213.949 168.811 213.595 185.664Z" fill="#FEB546"/>
<path opacity="0.5" d="M56.3711 180.813C57.1765 182.876 58.9247 184.487 61.164 185.076L72.8321 188.16C73.775 188.317 74.659 187.649 74.7768 186.687C74.8554 185.921 74.9732 185.174 75.1304 184.447L56.3711 180.813Z" fill="#FEB546"/>
<path opacity="0.5" d="M256.615 189.829C256.595 190.32 256.556 190.791 256.497 191.282C256.242 193.64 258.068 195.702 260.426 195.702H275.708C278.478 195.702 280.737 193.443 280.737 190.673V189.848H256.615V189.829Z" fill="#FEB546"/>
<path d="M217.112 189.829C217.112 188.788 217.19 187.767 217.328 186.765C217.504 185.567 216.601 184.467 215.383 184.428L115.772 181.992C114.692 181.972 113.906 182.994 114.201 184.054C114.711 185.881 114.986 187.806 114.986 189.79C114.986 191.106 114.868 192.383 114.633 193.64C114.397 194.937 115.379 196.155 116.695 196.155H214.165C216.07 196.155 217.524 194.465 217.269 192.56C217.17 191.656 217.112 190.733 217.112 189.829Z" fill="#EAB054"/>
<path opacity="0.5" d="M217.112 189.829C217.112 189.809 217.112 189.79 217.112 189.77H115.006C115.006 191.086 114.888 192.363 114.653 193.62C114.417 194.917 115.399 196.135 116.715 196.135H214.185C216.09 196.135 217.544 194.445 217.289 192.54C217.171 191.656 217.112 190.733 217.112 189.829Z" fill="#FEB546"/>
<path d="M95.5598 149.757L150.6 150.268C150.6 150.268 153.979 150.169 154.431 147.007C154.882 143.844 154.843 130.251 154.843 130.251C154.843 130.251 154.45 127.521 151.838 127.481C150.247 127.462 136.948 126.519 124.023 128.09C113.474 129.367 103.712 134.199 96.3062 141.605L92.3972 145.514C92.3972 145.514 89.765 149.698 95.5598 149.757Z" fill="#EAFCFC"/>
<path d="M160.971 131.98V146.221C160.971 148.068 162.386 149.6 164.193 149.659L207.447 151.407C208.449 151.447 209.411 150.995 209.981 150.15C210.767 149.011 210.845 147.125 206.976 144.591C200.238 140.211 183.089 130.703 176.745 129.8C172.698 129.21 167.414 128.955 164.114 128.857C162.405 128.798 160.971 130.212 160.971 131.98Z" fill="#EAFCFC"/>
<path d="M103.712 143.098C103.712 143.098 139.58 139.012 140.346 139.719C141.112 140.426 146.102 152.094 147.005 155.276L104.753 154.884L101.787 150.405L103.712 143.098Z" fill="#B75742"/>
<path d="M179.77 146.319C179.77 146.319 183.07 150.228 184.013 154.432L182.972 156.121L180.89 153.921L179.77 146.319Z" fill="#263D60"/>
<path d="M183.286 136.066C182.658 131.94 178.925 128.974 175.036 130.978C174.152 131.43 172.974 132.333 172.365 133.119C170.734 135.221 170.302 137.814 168.613 139.857C169.241 140.328 169.988 140.819 170.872 141.291L171.933 139.876L171.579 141.625C174.191 142.882 177.884 143.903 182.952 143.884C183.581 141.035 183.62 138.266 183.286 136.066Z" fill="#1A1A1A"/>
<path d="M174.545 145.14C174.545 145.14 170.793 144.904 169.32 146.515C167.827 148.126 172.62 160.914 172.875 162.956C173.15 165.019 170.656 169.105 170.656 169.105C170.656 169.105 180.968 173.937 183.502 172.267C183.502 172.267 183.09 155.787 182.834 154.333C182.559 152.86 180.32 146.888 179.77 146.299C179.22 145.729 174.545 145.14 174.545 145.14Z" fill="#355389"/>
<path d="M175.782 140.131C175.782 140.131 175.763 140.249 175.723 140.426C175.546 141.33 174.918 144.315 174.486 145.14C173.955 146.142 176.293 149.305 178.532 148.912C179.2 148.794 177.963 146.005 178.022 145.71C178.139 145.14 178.297 144.374 178.454 143.569C178.552 143.117 178.63 142.665 178.709 142.233C178.945 141.015 179.141 140.033 179.141 140.033L175.782 140.131Z" fill="#FFA329"/>
<path d="M103.987 143.786C103.947 143.53 103.849 143.314 103.712 143.098L98.3882 148.441C98.3882 148.441 94.381 154.786 103.201 154.884L105.617 154.904L103.987 143.786Z" fill="#B75742"/>
<path opacity="0.3" d="M175.724 140.427C175.763 140.23 175.783 140.132 175.783 140.132L179.142 140.053C179.142 140.053 178.945 141.036 178.709 142.253C178.631 142.686 178.533 143.118 178.454 143.57C177.943 143.491 177.393 143.236 176.843 142.764C176.254 142.253 175.861 141.625 175.625 140.957C175.665 140.761 175.704 140.564 175.724 140.427Z" fill="#F47458"/>
<path d="M178.041 132.51C178.041 132.51 176.469 132.333 175.468 133.61C174.485 134.887 173.405 138.855 175.88 140.996C178.336 143.157 180.771 140.721 181.145 138.128C181.498 135.555 181.636 132.431 178.041 132.51Z" fill="#FFA329"/>
<path d="M181.852 138.109C181.558 138.678 181.067 138.993 180.752 138.816C180.438 138.639 180.418 138.03 180.713 137.461C181.008 136.891 181.499 136.577 181.813 136.753C182.127 136.93 182.147 137.539 181.852 138.109Z" fill="#FFA329"/>
<path d="M178.218 132.098C178.218 132.098 176.097 135.869 174.604 136.027C173.091 136.203 172.895 138.207 172.895 138.207C172.895 138.207 173.445 133.591 174.938 132.707C176.431 131.823 178.218 132.098 178.218 132.098Z" fill="#1A1A1A"/>
<path d="M174.997 136.989C175.115 137.657 174.879 138.266 174.447 138.364C174.015 138.443 173.563 137.971 173.445 137.303C173.327 136.636 173.563 136.027 173.995 135.928C174.427 135.85 174.879 136.321 174.997 136.989Z" fill="#FFA329"/>
<path d="M169.673 163.409C169.673 163.369 171.087 157.339 171.657 156.003C172.227 154.667 174.466 148.46 174.466 148.46L171.578 147.832C171.578 147.832 169.712 152.684 168.868 154.884C168.023 157.084 168.377 161.13 168.337 162.269C168.337 162.289 168.219 163.232 168.219 163.252C168.2 163.369 168.161 163.487 168.161 163.507C168.121 163.566 168.023 163.939 168.023 163.978C168.023 164.018 167.925 164.136 167.905 164.194C167.866 164.253 167.787 165.019 167.768 165.157C167.748 165.275 167.807 165.569 167.807 165.569L167.768 166.08C167.748 166.453 168.141 166.355 168.141 166.355C168.141 166.532 168.2 166.63 168.298 166.67C168.396 166.709 168.514 166.669 168.534 166.689C168.553 166.689 168.553 166.748 168.553 166.748C168.534 166.866 168.671 166.945 168.75 166.964C168.828 166.984 168.986 166.925 169.025 166.866C169.064 166.807 169.103 166.827 169.103 166.827C169.182 166.905 169.516 166.886 169.595 166.787C169.673 166.689 169.732 166.139 169.771 166.08C169.811 166.021 169.87 165.943 169.889 165.864C169.909 165.786 170.164 165.216 170.184 165.118C170.203 165.019 170.027 164.627 170.007 164.391C169.968 164.155 169.752 163.821 169.693 163.703C169.653 163.684 169.673 163.566 169.673 163.409Z" fill="#F48C7F"/>
<path d="M179.22 139.385L176.785 139.267C176.785 139.267 176.785 140.19 177.865 140.269C179.161 140.387 179.22 139.385 179.22 139.385Z" fill="white"/>
<path d="M165.942 141.251L165.058 147.066C165.058 147.066 168.26 153.98 170.185 153.391C171.796 152.88 170.794 146.771 170.794 146.771C170.794 146.771 169.91 143.491 170.185 141.841C170.44 140.171 165.942 141.251 165.942 141.251Z" fill="#FFA329"/>
<path d="M170.185 141.822C170.44 140.172 165.942 141.252 165.942 141.252L165.863 141.743C166.001 142.057 166.158 142.332 166.354 142.548C167.356 143.629 168.928 144.297 170.303 144.336C170.165 143.432 170.087 142.49 170.185 141.822Z" fill="#F47458"/>
<path d="M165.195 133.021C165.077 132.982 164.174 139.641 165.863 141.468C167.552 143.295 170.872 143.904 172.051 142.45C173.367 140.859 173.288 133.689 170.656 131.804C168.024 129.937 165.195 133.021 165.195 133.021Z" fill="#FFA329"/>
<path d="M169.674 128.268C167.631 128.68 166.315 129.937 165.824 130.468C164.901 130.586 163.643 131.096 162.347 133.257C160.756 135.909 161.934 138.855 163.781 140.309C165.647 141.743 165.608 143.413 165.608 143.413L165.902 142.548C166.118 141.9 166.217 141.193 166.138 140.525C166.099 140.113 166.001 139.661 165.843 139.307C165.392 138.345 166.806 137.697 167.199 136.891C167.494 136.282 167.513 134.868 168.004 133.846L168.574 133.061C168.574 133.061 169.89 132.039 171.186 132.314C172.463 132.589 172.286 127.718 169.674 128.268Z" fill="#13375B"/>
<path d="M167.101 138.07C167.121 138.875 166.748 139.543 166.276 139.562C165.805 139.562 165.412 138.914 165.412 138.109C165.412 137.303 165.766 136.636 166.237 136.616C166.709 136.596 167.101 137.244 167.101 138.07Z" fill="#FFA329"/>
<path d="M169.871 139.936L172.425 139.798C172.425 139.798 172.425 140.78 171.285 140.859C169.93 140.977 169.871 139.936 169.871 139.936Z" fill="white"/>
<path d="M164.331 146.83C164.567 146.398 164.999 146.104 165.49 146.045C167.631 145.848 173.544 145.848 176.569 151.073C177.04 151.898 177.394 152.782 177.63 153.706L178.258 156.318L162.701 155.807L162.72 154.079C162.602 151.564 163.133 149.05 164.331 146.83Z" fill="#3C8F7C"/>
<path d="M201.26 157.28L203.519 148.107C203.676 147.498 203.303 146.869 202.674 146.712C202.065 146.555 201.437 146.928 201.28 147.557L198.922 157.162L201.26 157.28Z" fill="#1A1A1A"/>
<path d="M195.425 157.005C196.074 156.613 196.584 156.279 196.938 156.063C196.958 156.043 198.588 155.257 198.627 155.257C198.863 155.179 199.059 155.1 199.099 155.1C199.217 155.1 199.924 154.864 199.983 154.825C200.042 154.805 200.336 154.805 200.454 154.805C200.572 154.805 201.888 154.137 202.104 154.02C202.32 153.921 202.713 153.529 202.713 153.529L203.558 153.037C204.186 152.684 203.617 152.154 203.617 152.154C203.911 151.977 203.99 151.78 203.951 151.584C203.892 151.387 203.734 151.23 203.715 151.191C203.715 151.152 203.793 151.093 203.793 151.093C203.99 150.995 203.99 150.7 203.931 150.543C203.872 150.386 203.636 150.209 203.499 150.209C203.381 150.189 203.361 150.13 203.361 150.13C203.381 149.914 203.047 149.423 202.811 149.403C202.576 149.384 201.633 149.855 201.515 149.855C201.397 149.855 201.2 149.816 201.063 149.895C200.925 149.953 199.767 150.111 199.57 150.209C199.374 150.307 198.942 150.955 198.627 151.23C198.313 151.525 197.979 152.232 197.881 152.429C197.841 152.507 197.625 152.625 197.39 152.743C197.35 152.782 190.259 155.336 186.075 156.593L195.425 157.005Z" fill="#FFA329"/>
<path d="M173.327 156.121C172.895 153.489 172.345 150.719 171.756 149.423C170.479 146.614 166.177 144.944 164.075 146.692C162.956 147.616 163.427 152.055 164.39 155.885L173.327 156.121Z" fill="#50BFA5"/>
<path d="M110.842 140.859C110.842 140.859 105.577 140.721 103.79 141.92C102.002 143.098 102.218 154.884 102.218 154.884L103.947 155.218C103.947 155.218 104.575 163.331 105.931 163.743C107.286 164.175 116.126 161.445 117.972 159.166C119.818 156.888 114.083 140.073 114.083 140.073L110.842 140.859Z" fill="#3C8F7C"/>
<path d="M120.211 131.508C120.663 130.094 120.978 125.792 121.076 124.319C120.997 124.221 120.624 123.592 120.663 122.355C120.683 121.49 120.094 120.056 120.644 120.155C121.194 120.253 121.233 121.746 121.567 121.49C121.901 121.235 122.058 118.092 122.549 118.171C123.06 118.249 122.706 121.215 123.001 120.98C123.295 120.744 123.315 118.013 124.022 118.151C124.729 118.269 123.708 121.353 124.081 121.431C124.454 121.49 125.063 119.546 125.633 119.644C126.203 119.742 124.69 122.276 124.867 122.158C125.044 122.021 126.262 120.98 126.458 121.215C126.694 121.471 123.865 124.456 123.865 125.222C124.101 127.206 124.572 130.782 123.924 133.04C123.138 135.791 121.135 141.919 121.135 141.919L116.872 140.898C116.872 140.937 119.661 133.198 120.211 131.508Z" fill="#FFA329"/>
<path d="M122.02 122.099C122.236 122.197 122.413 122.334 122.55 122.511C122.57 122.551 123.1 123.042 122.963 123.867C122.884 123.356 122.766 122.786 122.02 122.099Z" fill="#F48C7F"/>
<path d="M94.734 143.157C94.734 143.157 94.8518 142.469 94.2625 141.408C93.8893 140.721 93.7911 139.346 93.3982 139.64C93.0053 139.935 93.5947 141.153 93.2411 141.074C92.8875 140.996 91.5125 138.54 91.1785 138.815C90.825 139.09 92.2785 141.31 91.9446 141.251C91.6303 141.192 90.5303 139.012 90.0392 139.385C89.5481 139.758 91.5518 141.821 91.2964 142.037C91.041 142.233 89.8035 140.917 89.4107 141.212C89.0178 141.526 91.1785 142.96 90.9821 142.921C90.7857 142.882 89.4499 142.528 89.391 142.803C89.3124 143.098 92.1214 143.982 92.4357 144.61C92.75 145.239 97.5626 151.426 98.9376 151.446C100.313 151.446 106.481 147.282 106.932 145.907C107.384 144.551 106.815 143.117 105.931 142.921C105.027 142.724 99.2715 146.869 98.9965 146.81C98.7215 146.751 94.734 143.157 94.734 143.157Z" fill="#FFA329"/>
<path d="M93.3005 141.664C93.163 141.841 93.0844 142.057 93.0255 142.273C93.0255 142.312 92.8094 143.019 93.3398 143.648C93.1826 143.176 92.9862 142.646 93.3005 141.664Z" fill="#F48C7F"/>
<path d="M107.719 151.721C107.719 151.721 113.259 156.121 113.868 157.025C114.319 157.693 112.807 165.275 112.807 165.275C112.807 165.275 110.607 165.334 109.605 164.568C109.605 164.568 110.214 159.323 109.939 159.127C109.684 158.93 103.594 156.22 103.594 156.22L103.987 153.116L107.719 151.721Z" fill="#B75742"/>
<path d="M118.366 135.869C118.366 135.869 119.328 136.046 122.609 139.621L118.798 147.38L115.282 140.937L118.366 135.869Z" fill="#9BC1F9"/>
<path d="M112.178 141.33C112.178 141.33 114.673 140.78 115.557 140.348C116.44 139.915 124.553 159.048 122.51 159.716C118.228 161.13 107.13 164.862 107.13 164.862C107.13 164.862 106.815 163.762 107.208 161.739C107.915 158.243 107.68 150.444 107.522 149.089C107.444 148.283 102.71 150.601 102.71 150.601L100.844 144.551C100.844 144.551 106.246 142.705 108.053 142.135C108.583 141.958 112.178 141.33 112.178 141.33Z" fill="#9BC1F9"/>
<path d="M121.43 153.175C120.409 150.012 113.71 140.957 113.651 140.858L114.751 140.112C114.987 140.466 120.468 148.166 121.528 151.505L121.43 153.175Z" fill="#3C8F7C"/>
<path d="M106.874 159.028L106.187 158.144C106.226 158.105 110.901 154.373 111.038 150.228C111.156 146.044 107.797 142.017 107.758 141.978L108.622 141.251C108.779 141.428 112.315 145.632 112.178 150.267C112.021 154.923 107.09 158.871 106.874 159.028Z" fill="#3C8F7C"/>
<path d="M110.979 128.543C110.979 128.543 112.963 127.069 114.829 129.466C116.322 131.371 116.126 130.762 116.872 131.725C117.619 132.668 118.738 132.746 118.895 134.337C119.072 135.909 118.365 136.243 118.365 136.243C118.365 136.243 119.17 137.402 118.562 138.737C117.953 140.073 116.244 141.37 114.692 141.35C114.692 141.35 112.531 142.863 110.154 142.509C107.777 142.155 108.583 142.077 107.64 142.175C106.697 142.273 104.006 141.252 104.222 139.327C104.222 139.327 102.474 137.637 103.809 135.968C105.165 134.298 105.892 133.119 106.54 130.998C107.188 128.877 109.879 128.169 110.979 128.543Z" fill="#1A1A1A"/>
<path d="M113.631 139.425C113.631 139.425 113.848 142.214 114.142 142.45C114.437 142.686 114.849 143.078 114.535 143.786C114.221 144.493 112.512 144.257 111.687 143.943C110.901 143.648 110.351 143.039 110.351 143.039L110.272 138.58L113.631 139.425Z" fill="#FFA329"/>
<path d="M112.649 140.702C112.099 140.564 111.117 140.309 110.272 139.209L110.252 138.58L113.631 139.425C113.631 139.425 113.69 140.112 113.769 140.819C113.317 140.859 112.904 140.76 112.649 140.702Z" fill="#F48C7F"/>
<path d="M108.877 136.144C108.877 136.144 108.622 134.514 107.64 134.946C106.658 135.378 107.699 137.774 108.524 137.598C109.368 137.421 108.877 136.144 108.877 136.144Z" fill="#FFA329"/>
<path d="M111.922 129.8C111.922 129.8 113.494 129.603 114.437 130.742C115.38 131.882 116.617 135.3 115.556 137.853C114.476 140.407 112.728 139.994 112.001 139.837C111.274 139.66 109.84 139.268 108.897 137.087C107.935 134.887 107.895 129.76 111.922 129.8Z" fill="#FFA329"/>
<path d="M144.058 155.886L146.966 169.715L141.957 169.223L139.56 156.573L144.058 155.886Z" fill="#FFA329"/>
<path d="M144.923 156.279L139.561 156.573C139.561 156.573 139.168 152.861 139.069 151.093C138.952 148.952 138.991 146.162 139.266 146.202C140.012 146.339 141.014 146.673 141.623 147.459C143.784 150.15 144.923 156.279 144.923 156.279Z" fill="#5184CE"/>
<path d="M141.388 150.621C141.525 151.269 144.924 169.36 144.924 169.36C136.89 173.78 130.741 170.009 130.741 170.009C130.741 170.009 131.055 157.849 130.643 156.16C130.368 155.041 129.386 147.694 130.093 147.458C131.016 147.144 132.411 146.673 133.57 146.496C134.572 146.339 138.441 146.083 139.148 146.28C139.148 146.26 140.857 147.89 141.388 150.621Z" fill="#EAFCFC"/>
<path d="M138.5 133.374C138.5 133.374 141.761 133.315 141.486 136.026C141.486 136.026 143.902 136.969 142.291 139.149C142.291 139.149 144.019 141.487 141.014 143.746C141.014 143.746 140.209 146.889 136.83 145.396C136.83 145.396 135.828 146.142 134.434 145.14C133.039 144.139 132.862 143.549 132.862 143.549C132.862 143.549 129.798 142.96 130.21 140.151C130.21 140.151 128.6 138.776 131.035 137.047C131.035 137.047 130.996 133.178 134.276 133.688C134.296 133.669 136.221 130.722 138.5 133.374Z" fill="#13375B"/>
<path d="M133.412 139.719C133.333 140.406 132.882 140.917 132.41 140.858C131.939 140.799 131.644 140.19 131.723 139.503C131.801 138.815 132.253 138.304 132.724 138.363C133.196 138.422 133.51 139.031 133.412 139.719Z" fill="#FFA329"/>
<path d="M141.053 141.801C140.758 142.43 140.189 142.783 139.756 142.587C139.324 142.391 139.206 141.723 139.501 141.094C139.796 140.466 140.365 140.112 140.797 140.308C141.23 140.505 141.328 141.173 141.053 141.801Z" fill="#FFA329"/>
<path d="M137.125 143.903C137.125 143.942 137.4 145.73 137.537 146.653C137.596 147.007 137.4 147.341 137.066 147.458C136.182 147.792 134.453 148.205 133.373 147.066C133.275 146.967 133.235 146.81 133.235 146.673L133.687 142.528L137.125 143.903Z" fill="#FFA329"/>
<path d="M137.399 145.69C136.457 146.083 133.746 145.749 133.53 144.04L133.687 142.547L137.124 143.903C137.124 143.922 137.321 145.14 137.399 145.69Z" fill="#F48C7F"/>
<path d="M138.008 135.476C138.008 135.476 136.575 135.162 135.219 136.006C133.844 136.851 131.624 140.19 133.491 143.097C135.337 146.005 138.5 144.571 139.6 142.272C140.7 139.974 141.171 136.556 138.008 135.476Z" fill="#FFA329"/>
<path d="M137.125 142.646L135.219 142.528C135.219 142.528 135.219 143.255 136.064 143.333C137.085 143.432 137.125 142.646 137.125 142.646Z" fill="white"/>
<path d="M140.445 137.087C140.445 137.087 139.05 136.34 138.028 136.438C136.987 136.537 133.628 138.992 133.137 138.58C132.646 138.167 133.275 136.006 133.668 135.692C134.061 135.378 135.612 134.435 135.75 134.415C135.887 134.396 137.302 134.415 137.537 134.494C137.773 134.553 139.541 135.397 139.541 135.397L140.445 137.087Z" fill="#13375B"/>
<path d="M120.29 170.991C120.31 170.913 120.389 170.913 120.467 170.893C121.174 170.854 121.882 170.795 122.589 170.677C122.707 170.657 122.824 170.618 122.923 170.579C123.119 170.5 123.316 170.48 123.512 170.539C123.63 170.559 123.728 170.559 123.846 170.559C124.199 170.539 125.221 170.166 125.732 170.068C125.849 170.048 125.948 169.95 125.967 169.832C126.419 167.77 127.382 163.173 127.48 161.661C127.598 159.736 128.658 151.014 128.658 151.014L132.234 151.898C132.234 151.898 130.976 158.341 130.662 161.464C130.426 163.861 128.187 169.027 127.48 170.52C127.146 171.62 126.321 171.679 126.144 171.698C126.026 171.718 125.928 171.777 125.869 171.856C125.751 172.013 125.594 172.15 125.437 172.268C125.319 172.347 125.221 172.464 125.142 172.582C125.005 172.798 124.867 173.034 124.749 173.27C124.671 173.427 124.573 173.486 124.435 173.447C124.298 173.407 124.219 173.309 124.219 173.132C124.219 172.877 124.298 172.641 124.416 172.425C124.533 172.209 124.514 172.091 124.376 171.914C124.298 171.816 124.199 171.718 124.101 171.62C123.983 171.541 123.885 171.482 123.728 171.502C123.473 171.581 123.217 171.639 122.962 171.679L122.746 171.738L122.628 171.757C122.608 171.757 122.235 171.816 122.098 171.816C121.999 171.816 121.823 171.836 121.685 171.836C121.548 171.856 121.273 171.797 121.273 171.797C121.155 171.797 121.037 171.757 120.939 171.679C120.899 171.639 120.86 171.6 120.88 171.541C120.899 171.482 120.939 171.463 120.998 171.443C121.076 171.423 121.528 171.364 121.508 171.345C121.371 171.345 120.958 171.345 120.84 171.345C120.664 171.345 120.507 171.286 120.389 171.168C120.33 171.129 120.271 171.07 120.29 170.991Z" fill="#FFA329"/>
<path d="M126.262 156.258L131.448 158.773C131.448 158.773 132.253 154.962 132.862 152.605C133.393 150.581 130.8 146.967 129.935 147.458C128.03 148.558 126.262 156.258 126.262 156.258Z" fill="#5184CE"/>
<path d="M161.345 149.541L207.507 151.505C207.507 151.505 203.48 164.98 203.382 165.648C203.284 166.316 188.139 174.586 184.328 174.488C180.517 174.389 171.638 171.207 169.733 170.638C167.827 170.068 162.858 166.198 163.152 163.821C163.467 161.445 161.345 149.541 161.345 149.541Z" fill="#F7CC7F"/>
<path d="M174.623 156.377H162.228C161.914 156.377 161.678 156.122 161.678 155.827V154.766C161.678 154.452 161.934 154.216 162.228 154.216H174.623C174.937 154.216 175.173 154.472 175.173 154.766V155.827C175.193 156.122 174.937 156.377 174.623 156.377Z" fill="#EAB054"/>
<path d="M179.986 130.664L186.232 133.237L185.879 131.941L183.541 130.664C183.541 130.664 181.636 130.291 181.439 130.193C181.282 130.094 179.986 130.664 179.986 130.664Z" fill="#F7CC7F"/>
<path opacity="0.6" d="M209.804 147.125L160.971 142.941V146.201C160.971 148.048 162.386 149.58 164.193 149.639L207.447 151.387C208.449 151.427 209.411 150.975 209.981 150.13C210.472 149.423 210.688 148.421 209.804 147.125Z" fill="#C5DDF9"/>
<path opacity="0.7" d="M160.971 142.94V142.488L209.628 146.889L209.804 147.124L160.971 142.94Z" fill="#C5DDF9"/>
<path opacity="0.2" d="M172.227 149.973L176.666 150.17L180.32 144.61L175.999 144.237L172.227 149.973Z" fill="white"/>
<path opacity="0.2" d="M180.123 150.307L183.679 144.885L182.029 144.748L178.434 150.228L180.123 150.307Z" fill="white"/>
<path d="M94.8329 149.718L150.6 150.268L151.091 167.946C151.091 167.946 144.57 177.414 143.784 177.316C142.998 177.218 126.341 174.547 124.848 174.645C123.355 174.743 110.292 168.339 109.683 168.457C109.074 168.595 104.988 166.395 104.988 166.395L98.349 161.72L91.7686 154.943L94.8329 149.718Z" fill="#F7CC7F"/>
<path d="M106.127 155.276H93.7321C93.4179 155.276 93.1821 155.021 93.1821 154.726V153.666C93.1821 153.351 93.4375 153.116 93.7321 153.116H106.127C106.441 153.116 106.677 153.371 106.677 153.666V154.726C106.677 155.041 106.422 155.276 106.127 155.276Z" fill="#EAB054"/>
<path d="M114.377 136.89L112.452 137.264C112.452 137.264 112.629 137.99 113.493 137.853C114.515 137.676 114.377 136.89 114.377 136.89Z" fill="white"/>
<path d="M108.386 135.044C108.386 135.044 112.747 133.04 113.179 129.917C113.611 126.794 109.604 129.78 109.604 129.78L107.974 131.331L108.386 135.044Z" fill="#1A1A1A"/>
<path d="M162.563 149.148C162.563 149.148 163.368 149.698 164.389 149.678C164.389 149.678 163.034 150.091 162.995 150.071C162.955 150.032 162.268 149.482 162.288 149.482C162.288 149.443 162.563 149.148 162.563 149.148Z" fill="#F7CC7F"/>
<path d="M166.766 128.954L172.226 129.308C172.226 129.308 171.343 127.835 170.95 127.835C170.557 127.835 168.082 127.835 168.082 127.835L166.766 128.954Z" fill="#F7CC7F"/>
<path d="M356.647 209.771H1.35327C0.605412 209.771 0 209.166 0 208.418C0 207.67 0.605412 207.065 1.35327 207.065H356.647C357.395 207.065 358 207.67 358 208.418C357.988 209.166 357.395 209.771 356.647 209.771Z" fill="#183658"/>
<path d="M308.768 75.8832C261.824 -9.29506 82.1646 135.818 28.1667 37.8427" stroke="#75BF7A" stroke-width="4.04932" stroke-linecap="round" stroke-linejoin="round" stroke-dasharray="12.15 12.15"/>
<path d="M313.733 46.9999C317.582 47.0045 321.272 48.5355 323.994 51.2572C326.715 53.9788 328.246 57.6689 328.251 61.5179C328.256 64.6633 327.228 67.7233 325.326 70.2286C325.326 70.2286 324.93 70.7499 324.866 70.8252L313.733 83.9546L302.595 70.8186C302.537 70.7486 302.14 70.2286 302.14 70.2286L302.138 70.2246C300.238 67.7205 299.211 64.6618 299.215 61.5179C299.22 57.6689 300.751 53.9788 303.472 51.2572C306.194 48.5355 309.884 47.0045 313.733 46.9999ZM313.733 66.7971C314.777 66.7971 315.798 66.4875 316.666 65.9074C317.534 65.3273 318.211 64.5028 318.61 63.5381C319.01 62.5735 319.115 61.512 318.911 60.4879C318.707 59.4639 318.204 58.5232 317.466 57.7849C316.728 57.0466 315.787 56.5438 314.763 56.3401C313.739 56.1364 312.677 56.2409 311.713 56.6405C310.748 57.04 309.924 57.7167 309.343 58.5849C308.763 59.453 308.454 60.4737 308.454 61.5179C308.456 62.9175 309.012 64.2592 310.002 65.2489C310.992 66.2386 312.333 66.7954 313.733 66.7971Z" fill="#75BF7A"/>
<path d="M25.5182 0C29.3672 0.00454077 33.0572 1.53556 35.7789 4.25722C38.5006 6.97887 40.0316 10.6689 40.0361 14.5179C40.0407 17.6633 39.0133 20.7234 37.1114 23.2287C37.1114 23.2287 36.7155 23.75 36.6508 23.8252L25.5182 36.9547L14.3803 23.8186C14.3222 23.7487 13.9249 23.2287 13.9249 23.2287L13.9236 23.2247C12.0227 20.7205 10.9957 17.6619 11.0002 14.5179C11.0048 10.6689 12.5358 6.97887 15.2575 4.25722C17.9791 1.53556 21.6692 0.00454077 25.5182 0ZM25.5182 19.7972C26.5623 19.7972 27.583 19.4875 28.4512 18.9074C29.3193 18.3274 29.996 17.5029 30.3956 16.5382C30.7951 15.5735 30.8997 14.5121 30.696 13.488C30.4923 12.4639 29.9895 11.5232 29.2512 10.7849C28.5129 10.0466 27.5722 9.54381 26.5481 9.34011C25.524 9.13641 24.4626 9.24096 23.4979 9.64053C22.5332 10.0401 21.7087 10.7168 21.1286 11.5849C20.5485 12.4531 20.2389 13.4738 20.2389 14.5179C20.2407 15.9175 20.7974 17.2593 21.7871 18.249C22.7768 19.2386 24.1186 19.7954 25.5182 19.7972Z" fill="#75BF7A"/>
</svg>
